<svg width="410" height="534" viewBox="0 0 410 534" fill="none" xmlns="http://www.w3.org/2000/svg">
<rect x="126" width="269" height="425" rx="10" fill="white"/>
<path opacity="0.6" d="M164.626 113.528H167.616V114.971H162.806V105.897H164.626V113.528ZM171.971 115.088C171.278 115.088 170.654 114.936 170.099 114.633C169.545 114.321 169.107 113.883 168.786 113.32C168.474 112.756 168.318 112.106 168.318 111.37C168.318 110.633 168.479 109.983 168.799 109.42C169.129 108.856 169.575 108.423 170.138 108.12C170.702 107.808 171.33 107.652 172.023 107.652C172.717 107.652 173.345 107.808 173.908 108.12C174.472 108.423 174.914 108.856 175.234 109.42C175.564 109.983 175.728 110.633 175.728 111.37C175.728 112.106 175.559 112.756 175.221 113.32C174.892 113.883 174.441 114.321 173.869 114.633C173.306 114.936 172.673 115.088 171.971 115.088ZM171.971 113.502C172.301 113.502 172.608 113.424 172.894 113.268C173.189 113.103 173.423 112.86 173.596 112.54C173.77 112.219 173.856 111.829 173.856 111.37C173.856 110.685 173.674 110.161 173.31 109.797C172.955 109.424 172.517 109.238 171.997 109.238C171.477 109.238 171.04 109.424 170.684 109.797C170.338 110.161 170.164 110.685 170.164 111.37C170.164 112.054 170.333 112.583 170.671 112.956C171.018 113.32 171.451 113.502 171.971 113.502ZM178.883 108.887C179.117 108.505 179.421 108.206 179.793 107.99C180.175 107.773 180.608 107.665 181.093 107.665V109.576H180.612C180.04 109.576 179.607 109.71 179.312 109.979C179.026 110.247 178.883 110.715 178.883 111.383V114.971H177.063V107.769H178.883V108.887ZM189.014 111.214C189.014 111.474 188.997 111.708 188.962 111.916H183.697C183.74 112.436 183.922 112.843 184.243 113.138C184.564 113.432 184.958 113.58 185.426 113.58C186.102 113.58 186.583 113.289 186.869 112.709H188.832C188.624 113.402 188.225 113.974 187.636 114.425C187.047 114.867 186.323 115.088 185.465 115.088C184.772 115.088 184.148 114.936 183.593 114.633C183.047 114.321 182.618 113.883 182.306 113.32C182.003 112.756 181.851 112.106 181.851 111.37C181.851 110.624 182.003 109.97 182.306 109.407C182.609 108.843 183.034 108.41 183.58 108.107C184.126 107.803 184.754 107.652 185.465 107.652C186.15 107.652 186.761 107.799 187.298 108.094C187.844 108.388 188.264 108.809 188.559 109.355C188.862 109.892 189.014 110.512 189.014 111.214ZM187.129 110.694C187.12 110.226 186.951 109.853 186.622 109.576C186.293 109.29 185.89 109.147 185.413 109.147C184.962 109.147 184.581 109.285 184.269 109.563C183.966 109.831 183.779 110.208 183.71 110.694H187.129ZM199.287 107.665C200.171 107.665 200.881 107.938 201.419 108.484C201.965 109.021 202.238 109.775 202.238 110.746V114.971H200.418V110.993C200.418 110.429 200.275 110 199.989 109.706C199.703 109.402 199.313 109.251 198.819 109.251C198.325 109.251 197.93 109.402 197.636 109.706C197.35 110 197.207 110.429 197.207 110.993V114.971H195.387V110.993C195.387 110.429 195.244 110 194.958 109.706C194.672 109.402 194.282 109.251 193.788 109.251C193.285 109.251 192.886 109.402 192.592 109.706C192.306 110 192.163 110.429 192.163 110.993V114.971H190.343V107.769H192.163V108.64C192.397 108.336 192.696 108.098 193.06 107.925C193.432 107.751 193.84 107.665 194.282 107.665C194.845 107.665 195.348 107.786 195.79 108.029C196.232 108.263 196.574 108.601 196.817 109.043C197.051 108.627 197.389 108.293 197.831 108.042C198.281 107.79 198.767 107.665 199.287 107.665ZM208.882 105.897V114.971H207.062V105.897H208.882ZM212.5 108.809C212.734 108.479 213.055 108.206 213.462 107.99C213.878 107.764 214.351 107.652 214.879 107.652C215.495 107.652 216.049 107.803 216.543 108.107C217.046 108.41 217.44 108.843 217.726 109.407C218.021 109.961 218.168 110.607 218.168 111.344C218.168 112.08 218.021 112.735 217.726 113.307C217.44 113.87 217.046 114.308 216.543 114.62C216.049 114.932 215.495 115.088 214.879 115.088C214.351 115.088 213.883 114.979 213.475 114.763C213.077 114.546 212.752 114.273 212.5 113.944V118.403H210.68V107.769H212.5V108.809ZM216.309 111.344C216.309 110.91 216.218 110.538 216.036 110.226C215.863 109.905 215.629 109.662 215.334 109.498C215.048 109.333 214.736 109.251 214.398 109.251C214.069 109.251 213.757 109.337 213.462 109.511C213.176 109.675 212.942 109.918 212.76 110.239C212.587 110.559 212.5 110.936 212.5 111.37C212.5 111.803 212.587 112.18 212.76 112.501C212.942 112.821 213.176 113.068 213.462 113.242C213.757 113.406 214.069 113.489 214.398 113.489C214.736 113.489 215.048 113.402 215.334 113.229C215.629 113.055 215.863 112.808 216.036 112.488C216.218 112.167 216.309 111.786 216.309 111.344ZM222.247 115.088C221.658 115.088 221.129 114.984 220.661 114.776C220.193 114.559 219.82 114.269 219.543 113.905C219.274 113.541 219.127 113.138 219.101 112.696H220.934C220.969 112.973 221.103 113.203 221.337 113.385C221.58 113.567 221.879 113.658 222.234 113.658C222.581 113.658 222.849 113.588 223.04 113.45C223.239 113.311 223.339 113.133 223.339 112.917C223.339 112.683 223.218 112.509 222.975 112.397C222.741 112.275 222.364 112.145 221.844 112.007C221.307 111.877 220.865 111.742 220.518 111.604C220.18 111.465 219.885 111.253 219.634 110.967C219.391 110.681 219.27 110.295 219.27 109.81C219.27 109.411 219.383 109.047 219.608 108.718C219.842 108.388 220.171 108.128 220.596 107.938C221.029 107.747 221.536 107.652 222.117 107.652C222.975 107.652 223.66 107.868 224.171 108.302C224.682 108.726 224.964 109.303 225.016 110.031H223.274C223.248 109.745 223.127 109.519 222.91 109.355C222.702 109.181 222.42 109.095 222.065 109.095C221.736 109.095 221.48 109.155 221.298 109.277C221.125 109.398 221.038 109.567 221.038 109.784C221.038 110.026 221.159 110.213 221.402 110.343C221.645 110.464 222.022 110.59 222.533 110.72C223.053 110.85 223.482 110.984 223.82 111.123C224.158 111.261 224.448 111.478 224.691 111.773C224.942 112.059 225.072 112.44 225.081 112.917C225.081 113.333 224.964 113.705 224.73 114.035C224.505 114.364 224.175 114.624 223.742 114.815C223.317 114.997 222.819 115.088 222.247 115.088ZM233.374 107.769V114.971H231.541V114.061C231.307 114.373 230.999 114.62 230.618 114.802C230.245 114.975 229.838 115.062 229.396 115.062C228.833 115.062 228.334 114.945 227.901 114.711C227.468 114.468 227.125 114.117 226.874 113.658C226.631 113.19 226.51 112.635 226.51 111.994V107.769H228.33V111.734C228.33 112.306 228.473 112.748 228.759 113.06C229.045 113.363 229.435 113.515 229.929 113.515C230.432 113.515 230.826 113.363 231.112 113.06C231.398 112.748 231.541 112.306 231.541 111.734V107.769H233.374ZM244.114 107.665C244.998 107.665 245.708 107.938 246.246 108.484C246.792 109.021 247.065 109.775 247.065 110.746V114.971H245.245V110.993C245.245 110.429 245.102 110 244.816 109.706C244.53 109.402 244.14 109.251 243.646 109.251C243.152 109.251 242.757 109.402 242.463 109.706C242.177 110 242.034 110.429 242.034 110.993V114.971H240.214V110.993C240.214 110.429 240.071 110 239.785 109.706C239.499 109.402 239.109 109.251 238.615 109.251C238.112 109.251 237.713 109.402 237.419 109.706C237.133 110 236.99 110.429 236.99 110.993V114.971H235.17V107.769H236.99V108.64C237.224 108.336 237.523 108.098 237.887 107.925C238.259 107.751 238.667 107.665 239.109 107.665C239.672 107.665 240.175 107.786 240.617 108.029C241.059 108.263 241.401 108.601 241.644 109.043C241.878 108.627 242.216 108.293 242.658 108.042C243.108 107.79 243.594 107.665 244.114 107.665ZM253.709 105.897V114.971H251.889V105.897H253.709ZM258.264 115.088C257.674 115.088 257.146 114.984 256.678 114.776C256.21 114.559 255.837 114.269 255.56 113.905C255.291 113.541 255.144 113.138 255.118 112.696H256.951C256.985 112.973 257.12 113.203 257.354 113.385C257.596 113.567 257.895 113.658 258.251 113.658C258.597 113.658 258.866 113.588 259.057 113.45C259.256 113.311 259.356 113.133 259.356 112.917C259.356 112.683 259.234 112.509 258.992 112.397C258.758 112.275 258.381 112.145 257.861 112.007C257.323 111.877 256.881 111.742 256.535 111.604C256.197 111.465 255.902 111.253 255.651 110.967C255.408 110.681 255.287 110.295 255.287 109.81C255.287 109.411 255.399 109.047 255.625 108.718C255.859 108.388 256.188 108.128 256.613 107.938C257.046 107.747 257.553 107.652 258.134 107.652C258.992 107.652 259.676 107.868 260.188 108.302C260.699 108.726 260.981 109.303 261.033 110.031H259.291C259.265 109.745 259.143 109.519 258.927 109.355C258.719 109.181 258.437 109.095 258.082 109.095C257.752 109.095 257.497 109.155 257.315 109.277C257.141 109.398 257.055 109.567 257.055 109.784C257.055 110.026 257.176 110.213 257.419 110.343C257.661 110.464 258.038 110.59 258.55 110.72C259.07 110.85 259.499 110.984 259.837 111.123C260.175 111.261 260.465 111.478 260.708 111.773C260.959 112.059 261.089 112.44 261.098 112.917C261.098 113.333 260.981 113.705 260.747 114.035C260.521 114.364 260.192 114.624 259.759 114.815C259.334 114.997 258.836 115.088 258.264 115.088ZM268.822 115.062C268.19 115.062 267.618 114.953 267.106 114.737C266.604 114.52 266.205 114.208 265.91 113.801C265.616 113.393 265.464 112.912 265.455 112.358H267.405C267.431 112.73 267.561 113.025 267.795 113.242C268.038 113.458 268.367 113.567 268.783 113.567C269.208 113.567 269.542 113.467 269.784 113.268C270.027 113.06 270.148 112.791 270.148 112.462C270.148 112.193 270.066 111.972 269.901 111.799C269.737 111.625 269.529 111.491 269.277 111.396C269.035 111.292 268.697 111.179 268.263 111.058C267.674 110.884 267.193 110.715 266.82 110.551C266.456 110.377 266.14 110.122 265.871 109.784C265.611 109.437 265.481 108.978 265.481 108.406C265.481 107.868 265.616 107.4 265.884 107.002C266.153 106.603 266.53 106.3 267.015 106.092C267.501 105.875 268.055 105.767 268.679 105.767C269.615 105.767 270.374 105.996 270.954 106.456C271.544 106.906 271.869 107.539 271.929 108.354H269.927C269.91 108.042 269.776 107.786 269.524 107.587C269.282 107.379 268.957 107.275 268.549 107.275C268.194 107.275 267.908 107.366 267.691 107.548C267.483 107.73 267.379 107.994 267.379 108.341C267.379 108.583 267.457 108.787 267.613 108.952C267.778 109.108 267.977 109.238 268.211 109.342C268.454 109.437 268.792 109.55 269.225 109.68C269.815 109.853 270.296 110.026 270.668 110.2C271.041 110.373 271.362 110.633 271.63 110.98C271.899 111.326 272.033 111.781 272.033 112.345C272.033 112.83 271.908 113.281 271.656 113.697C271.405 114.113 271.037 114.446 270.551 114.698C270.066 114.94 269.49 115.062 268.822 115.062ZM274.534 106.911C274.213 106.911 273.945 106.811 273.728 106.612C273.52 106.404 273.416 106.148 273.416 105.845C273.416 105.541 273.52 105.29 273.728 105.091C273.945 104.883 274.213 104.779 274.534 104.779C274.855 104.779 275.119 104.883 275.327 105.091C275.544 105.29 275.652 105.541 275.652 105.845C275.652 106.148 275.544 106.404 275.327 106.612C275.119 106.811 274.855 106.911 274.534 106.911ZM275.431 107.769V114.971H273.611V107.769H275.431ZM286.173 107.665C287.057 107.665 287.768 107.938 288.305 108.484C288.851 109.021 289.124 109.775 289.124 110.746V114.971H287.304V110.993C287.304 110.429 287.161 110 286.875 109.706C286.589 109.402 286.199 109.251 285.705 109.251C285.211 109.251 284.817 109.402 284.522 109.706C284.236 110 284.093 110.429 284.093 110.993V114.971H282.273V110.993C282.273 110.429 282.13 110 281.844 109.706C281.558 109.402 281.168 109.251 280.674 109.251C280.172 109.251 279.773 109.402 279.478 109.706C279.192 110 279.049 110.429 279.049 110.993V114.971H277.229V107.769H279.049V108.64C279.283 108.336 279.582 108.098 279.946 107.925C280.319 107.751 280.726 107.665 281.168 107.665C281.732 107.665 282.234 107.786 282.676 108.029C283.118 108.263 283.461 108.601 283.703 109.043C283.937 108.627 284.275 108.293 284.717 108.042C285.168 107.79 285.653 107.665 286.173 107.665ZM292.671 108.809C292.905 108.479 293.226 108.206 293.633 107.99C294.049 107.764 294.522 107.652 295.05 107.652C295.666 107.652 296.22 107.803 296.714 108.107C297.217 108.41 297.611 108.843 297.897 109.407C298.192 109.961 298.339 110.607 298.339 111.344C298.339 112.08 298.192 112.735 297.897 113.307C297.611 113.87 297.217 114.308 296.714 114.62C296.22 114.932 295.666 115.088 295.05 115.088C294.522 115.088 294.054 114.979 293.646 114.763C293.248 114.546 292.923 114.273 292.671 113.944V118.403H290.851V107.769H292.671V108.809ZM296.48 111.344C296.48 110.91 296.389 110.538 296.207 110.226C296.034 109.905 295.8 109.662 295.505 109.498C295.219 109.333 294.907 109.251 294.569 109.251C294.24 109.251 293.928 109.337 293.633 109.511C293.347 109.675 293.113 109.918 292.931 110.239C292.758 110.559 292.671 110.936 292.671 111.37C292.671 111.803 292.758 112.18 292.931 112.501C293.113 112.821 293.347 113.068 293.633 113.242C293.928 113.406 294.24 113.489 294.569 113.489C294.907 113.489 295.219 113.402 295.505 113.229C295.8 113.055 296.034 112.808 296.207 112.488C296.389 112.167 296.48 111.786 296.48 111.344ZM301.482 105.351V114.971H299.662V105.351H301.482ZM310.17 107.769L305.711 118.377H303.774L305.334 114.789L302.448 107.769H304.489L306.348 112.8L308.233 107.769H310.17ZM317.421 105.897C318.374 105.897 319.21 106.083 319.93 106.456C320.658 106.828 321.217 107.361 321.607 108.055C322.005 108.739 322.205 109.537 322.205 110.447C322.205 111.357 322.005 112.154 321.607 112.839C321.217 113.515 320.658 114.039 319.93 114.412C319.21 114.784 318.374 114.971 317.421 114.971H314.249V105.897H317.421ZM317.356 113.424C318.309 113.424 319.046 113.164 319.566 112.644C320.086 112.124 320.346 111.391 320.346 110.447C320.346 109.502 320.086 108.765 319.566 108.237C319.046 107.699 318.309 107.431 317.356 107.431H316.069V113.424H317.356ZM330.366 107.769V114.971H328.533V114.061C328.299 114.373 327.991 114.62 327.61 114.802C327.237 114.975 326.83 115.062 326.388 115.062C325.825 115.062 325.326 114.945 324.893 114.711C324.46 114.468 324.117 114.117 323.866 113.658C323.623 113.19 323.502 112.635 323.502 111.994V107.769H325.322V111.734C325.322 112.306 325.465 112.748 325.751 113.06C326.037 113.363 326.427 113.515 326.921 113.515C327.424 113.515 327.818 113.363 328.104 113.06C328.39 112.748 328.533 112.306 328.533 111.734V107.769H330.366ZM341.106 107.665C341.99 107.665 342.701 107.938 343.238 108.484C343.784 109.021 344.057 109.775 344.057 110.746V114.971H342.237V110.993C342.237 110.429 342.094 110 341.808 109.706C341.522 109.402 341.132 109.251 340.638 109.251C340.144 109.251 339.75 109.402 339.455 109.706C339.169 110 339.026 110.429 339.026 110.993V114.971H337.206V110.993C337.206 110.429 337.063 110 336.777 109.706C336.491 109.402 336.101 109.251 335.607 109.251C335.104 109.251 334.706 109.402 334.411 109.706C334.125 110 333.982 110.429 333.982 110.993V114.971H332.162V107.769H333.982V108.64C334.216 108.336 334.515 108.098 334.879 107.925C335.252 107.751 335.659 107.665 336.101 107.665C336.664 107.665 337.167 107.786 337.609 108.029C338.051 108.263 338.393 108.601 338.636 109.043C338.87 108.627 339.208 108.293 339.65 108.042C340.101 107.79 340.586 107.665 341.106 107.665ZM354.728 107.665C355.612 107.665 356.323 107.938 356.86 108.484C357.406 109.021 357.679 109.775 357.679 110.746V114.971H355.859V110.993C355.859 110.429 355.716 110 355.43 109.706C355.144 109.402 354.754 109.251 354.26 109.251C353.766 109.251 353.372 109.402 353.077 109.706C352.791 110 352.648 110.429 352.648 110.993V114.971H350.828V110.993C350.828 110.429 350.685 110 350.399 109.706C350.113 109.402 349.723 109.251 349.229 109.251C348.726 109.251 348.328 109.402 348.033 109.706C347.747 110 347.604 110.429 347.604 110.993V114.971H345.784V107.769H347.604V108.64C347.838 108.336 348.137 108.098 348.501 107.925C348.874 107.751 349.281 107.665 349.723 107.665C350.286 107.665 350.789 107.786 351.231 108.029C351.673 108.263 352.015 108.601 352.258 109.043C352.492 108.627 352.83 108.293 353.272 108.042C353.723 107.79 354.208 107.665 354.728 107.665ZM366.296 107.769L361.837 118.377H359.9L361.46 114.789L358.574 107.769H360.615L362.474 112.8L364.359 107.769H366.296Z" fill="#01070D"/>
<path opacity="0.6" d="M164.627 210.238H167.617V211.681H162.807V202.607H164.627V210.238ZM171.971 211.798C171.278 211.798 170.654 211.646 170.099 211.343C169.545 211.031 169.107 210.593 168.786 210.03C168.474 209.467 168.318 208.817 168.318 208.08C168.318 207.343 168.479 206.693 168.799 206.13C169.129 205.567 169.575 205.133 170.138 204.83C170.702 204.518 171.33 204.362 172.023 204.362C172.717 204.362 173.345 204.518 173.908 204.83C174.472 205.133 174.914 205.567 175.234 206.13C175.564 206.693 175.728 207.343 175.728 208.08C175.728 208.817 175.559 209.467 175.221 210.03C174.892 210.593 174.441 211.031 173.869 211.343C173.306 211.646 172.673 211.798 171.971 211.798ZM171.971 210.212C172.301 210.212 172.608 210.134 172.894 209.978C173.189 209.813 173.423 209.571 173.596 209.25C173.77 208.929 173.856 208.539 173.856 208.08C173.856 207.395 173.674 206.871 173.31 206.507C172.955 206.134 172.517 205.948 171.997 205.948C171.477 205.948 171.04 206.134 170.684 206.507C170.338 206.871 170.164 207.395 170.164 208.08C170.164 208.765 170.333 209.293 170.671 209.666C171.018 210.03 171.451 210.212 171.971 210.212ZM178.883 205.597C179.117 205.216 179.421 204.917 179.793 204.7C180.175 204.483 180.608 204.375 181.093 204.375V206.286H180.612C180.04 206.286 179.607 206.42 179.312 206.689C179.026 206.958 178.883 207.426 178.883 208.093V211.681H177.063V204.479H178.883V205.597ZM189.014 207.924C189.014 208.184 188.997 208.418 188.962 208.626H183.697C183.741 209.146 183.923 209.553 184.243 209.848C184.564 210.143 184.958 210.29 185.426 210.29C186.102 210.29 186.583 210 186.869 209.419H188.832C188.624 210.112 188.226 210.684 187.636 211.135C187.047 211.577 186.323 211.798 185.465 211.798C184.772 211.798 184.148 211.646 183.593 211.343C183.047 211.031 182.618 210.593 182.306 210.03C182.003 209.467 181.851 208.817 181.851 208.08C181.851 207.335 182.003 206.68 182.306 206.117C182.61 205.554 183.034 205.12 183.58 204.817C184.126 204.514 184.755 204.362 185.465 204.362C186.15 204.362 186.761 204.509 187.298 204.804C187.844 205.099 188.265 205.519 188.559 206.065C188.863 206.602 189.014 207.222 189.014 207.924ZM187.129 207.404C187.121 206.936 186.952 206.563 186.622 206.286C186.293 206 185.89 205.857 185.413 205.857C184.963 205.857 184.581 205.996 184.269 206.273C183.966 206.542 183.78 206.919 183.71 207.404H187.129ZM199.287 204.375C200.171 204.375 200.881 204.648 201.419 205.194C201.965 205.731 202.238 206.485 202.238 207.456V211.681H200.418V207.703C200.418 207.14 200.275 206.711 199.989 206.416C199.703 206.113 199.313 205.961 198.819 205.961C198.325 205.961 197.93 206.113 197.636 206.416C197.35 206.711 197.207 207.14 197.207 207.703V211.681H195.387V207.703C195.387 207.14 195.244 206.711 194.958 206.416C194.672 206.113 194.282 205.961 193.788 205.961C193.285 205.961 192.886 206.113 192.592 206.416C192.306 206.711 192.163 207.14 192.163 207.703V211.681H190.343V204.479H192.163V205.35C192.397 205.047 192.696 204.808 193.06 204.635C193.432 204.462 193.84 204.375 194.282 204.375C194.845 204.375 195.348 204.496 195.79 204.739C196.232 204.973 196.574 205.311 196.817 205.753C197.051 205.337 197.389 205.003 197.831 204.752C198.281 204.501 198.767 204.375 199.287 204.375ZM208.882 202.607V211.681H207.062V202.607H208.882ZM212.501 205.519C212.735 205.19 213.055 204.917 213.463 204.7C213.879 204.475 214.351 204.362 214.88 204.362C215.495 204.362 216.05 204.514 216.544 204.817C217.046 205.12 217.441 205.554 217.727 206.117C218.021 206.672 218.169 207.317 218.169 208.054C218.169 208.791 218.021 209.445 217.727 210.017C217.441 210.58 217.046 211.018 216.544 211.33C216.05 211.642 215.495 211.798 214.88 211.798C214.351 211.798 213.883 211.69 213.476 211.473C213.077 211.256 212.752 210.983 212.501 210.654V215.113H210.681V204.479H212.501V205.519ZM216.31 208.054C216.31 207.621 216.219 207.248 216.037 206.936C215.863 206.615 215.629 206.373 215.335 206.208C215.049 206.043 214.737 205.961 214.399 205.961C214.069 205.961 213.757 206.048 213.463 206.221C213.177 206.386 212.943 206.628 212.761 206.949C212.587 207.27 212.501 207.647 212.501 208.08C212.501 208.513 212.587 208.89 212.761 209.211C212.943 209.532 213.177 209.779 213.463 209.952C213.757 210.117 214.069 210.199 214.399 210.199C214.737 210.199 215.049 210.112 215.335 209.939C215.629 209.766 215.863 209.519 216.037 209.198C216.219 208.877 216.31 208.496 216.31 208.054ZM222.247 211.798C221.658 211.798 221.129 211.694 220.661 211.486C220.193 211.269 219.82 210.979 219.543 210.615C219.274 210.251 219.127 209.848 219.101 209.406H220.934C220.969 209.683 221.103 209.913 221.337 210.095C221.58 210.277 221.879 210.368 222.234 210.368C222.581 210.368 222.849 210.299 223.04 210.16C223.239 210.021 223.339 209.844 223.339 209.627C223.339 209.393 223.218 209.22 222.975 209.107C222.741 208.986 222.364 208.856 221.844 208.717C221.307 208.587 220.865 208.453 220.518 208.314C220.18 208.175 219.885 207.963 219.634 207.677C219.391 207.391 219.27 207.005 219.27 206.52C219.27 206.121 219.383 205.757 219.608 205.428C219.842 205.099 220.171 204.839 220.596 204.648C221.029 204.457 221.536 204.362 222.117 204.362C222.975 204.362 223.66 204.579 224.171 205.012C224.682 205.437 224.964 206.013 225.016 206.741H223.274C223.248 206.455 223.127 206.23 222.91 206.065C222.702 205.892 222.42 205.805 222.065 205.805C221.736 205.805 221.48 205.866 221.298 205.987C221.125 206.108 221.038 206.277 221.038 206.494C221.038 206.737 221.159 206.923 221.402 207.053C221.645 207.174 222.022 207.3 222.533 207.43C223.053 207.56 223.482 207.694 223.82 207.833C224.158 207.972 224.448 208.188 224.691 208.483C224.942 208.769 225.072 209.15 225.081 209.627C225.081 210.043 224.964 210.416 224.73 210.745C224.505 211.074 224.175 211.334 223.742 211.525C223.317 211.707 222.819 211.798 222.247 211.798ZM233.374 204.479V211.681H231.541V210.771C231.307 211.083 230.999 211.33 230.618 211.512C230.245 211.685 229.838 211.772 229.396 211.772C228.833 211.772 228.334 211.655 227.901 211.421C227.468 211.178 227.125 210.827 226.874 210.368C226.631 209.9 226.51 209.345 226.51 208.704V204.479H228.33V208.444C228.33 209.016 228.473 209.458 228.759 209.77C229.045 210.073 229.435 210.225 229.929 210.225C230.432 210.225 230.826 210.073 231.112 209.77C231.398 209.458 231.541 209.016 231.541 208.444V204.479H233.374ZM244.114 204.375C244.998 204.375 245.708 204.648 246.246 205.194C246.792 205.731 247.065 206.485 247.065 207.456V211.681H245.245V207.703C245.245 207.14 245.102 206.711 244.816 206.416C244.53 206.113 244.14 205.961 243.646 205.961C243.152 205.961 242.757 206.113 242.463 206.416C242.177 206.711 242.034 207.14 242.034 207.703V211.681H240.214V207.703C240.214 207.14 240.071 206.711 239.785 206.416C239.499 206.113 239.109 205.961 238.615 205.961C238.112 205.961 237.713 206.113 237.419 206.416C237.133 206.711 236.99 207.14 236.99 207.703V211.681H235.17V204.479H236.99V205.35C237.224 205.047 237.523 204.808 237.887 204.635C238.259 204.462 238.667 204.375 239.109 204.375C239.672 204.375 240.175 204.496 240.617 204.739C241.059 204.973 241.401 205.311 241.644 205.753C241.878 205.337 242.216 205.003 242.658 204.752C243.108 204.501 243.594 204.375 244.114 204.375ZM253.71 202.607V211.681H251.89V202.607H253.71ZM258.264 211.798C257.674 211.798 257.146 211.694 256.678 211.486C256.21 211.269 255.837 210.979 255.56 210.615C255.291 210.251 255.144 209.848 255.118 209.406H256.951C256.985 209.683 257.12 209.913 257.354 210.095C257.596 210.277 257.895 210.368 258.251 210.368C258.597 210.368 258.866 210.299 259.057 210.16C259.256 210.021 259.356 209.844 259.356 209.627C259.356 209.393 259.234 209.22 258.992 209.107C258.758 208.986 258.381 208.856 257.861 208.717C257.323 208.587 256.881 208.453 256.535 208.314C256.197 208.175 255.902 207.963 255.651 207.677C255.408 207.391 255.287 207.005 255.287 206.52C255.287 206.121 255.399 205.757 255.625 205.428C255.859 205.099 256.188 204.839 256.613 204.648C257.046 204.457 257.553 204.362 258.134 204.362C258.992 204.362 259.676 204.579 260.188 205.012C260.699 205.437 260.981 206.013 261.033 206.741H259.291C259.265 206.455 259.143 206.23 258.927 206.065C258.719 205.892 258.437 205.805 258.082 205.805C257.752 205.805 257.497 205.866 257.315 205.987C257.141 206.108 257.055 206.277 257.055 206.494C257.055 206.737 257.176 206.923 257.419 207.053C257.661 207.174 258.038 207.3 258.55 207.43C259.07 207.56 259.499 207.694 259.837 207.833C260.175 207.972 260.465 208.188 260.708 208.483C260.959 208.769 261.089 209.15 261.098 209.627C261.098 210.043 260.981 210.416 260.747 210.745C260.521 211.074 260.192 211.334 259.759 211.525C259.334 211.707 258.836 211.798 258.264 211.798ZM268.822 211.772C268.19 211.772 267.618 211.664 267.106 211.447C266.604 211.23 266.205 210.918 265.91 210.511C265.616 210.104 265.464 209.623 265.455 209.068H267.405C267.431 209.441 267.561 209.735 267.795 209.952C268.038 210.169 268.367 210.277 268.783 210.277C269.208 210.277 269.542 210.177 269.784 209.978C270.027 209.77 270.148 209.501 270.148 209.172C270.148 208.903 270.066 208.682 269.901 208.509C269.737 208.336 269.529 208.201 269.277 208.106C269.035 208.002 268.697 207.889 268.263 207.768C267.674 207.595 267.193 207.426 266.82 207.261C266.456 207.088 266.14 206.832 265.871 206.494C265.611 206.147 265.481 205.688 265.481 205.116C265.481 204.579 265.616 204.111 265.884 203.712C266.153 203.313 266.53 203.01 267.015 202.802C267.501 202.585 268.055 202.477 268.679 202.477C269.615 202.477 270.374 202.707 270.954 203.166C271.544 203.617 271.869 204.249 271.929 205.064H269.927C269.91 204.752 269.776 204.496 269.524 204.297C269.282 204.089 268.957 203.985 268.549 203.985C268.194 203.985 267.908 204.076 267.691 204.258C267.483 204.44 267.379 204.704 267.379 205.051C267.379 205.294 267.457 205.497 267.613 205.662C267.778 205.818 267.977 205.948 268.211 206.052C268.454 206.147 268.792 206.26 269.225 206.39C269.815 206.563 270.296 206.737 270.668 206.91C271.041 207.083 271.362 207.343 271.63 207.69C271.899 208.037 272.033 208.492 272.033 209.055C272.033 209.54 271.908 209.991 271.656 210.407C271.405 210.823 271.037 211.157 270.551 211.408C270.066 211.651 269.49 211.772 268.822 211.772ZM274.534 203.621C274.214 203.621 273.945 203.521 273.728 203.322C273.52 203.114 273.416 202.858 273.416 202.555C273.416 202.252 273.52 202 273.728 201.801C273.945 201.593 274.214 201.489 274.534 201.489C274.855 201.489 275.119 201.593 275.327 201.801C275.544 202 275.652 202.252 275.652 202.555C275.652 202.858 275.544 203.114 275.327 203.322C275.119 203.521 274.855 203.621 274.534 203.621ZM275.431 204.479V211.681H273.611V204.479H275.431ZM286.173 204.375C287.057 204.375 287.768 204.648 288.305 205.194C288.851 205.731 289.124 206.485 289.124 207.456V211.681H287.304V207.703C287.304 207.14 287.161 206.711 286.875 206.416C286.589 206.113 286.199 205.961 285.705 205.961C285.211 205.961 284.817 206.113 284.522 206.416C284.236 206.711 284.093 207.14 284.093 207.703V211.681H282.273V207.703C282.273 207.14 282.13 206.711 281.844 206.416C281.558 206.113 281.168 205.961 280.674 205.961C280.172 205.961 279.773 206.113 279.478 206.416C279.192 206.711 279.049 207.14 279.049 207.703V211.681H277.229V204.479H279.049V205.35C279.283 205.047 279.582 204.808 279.946 204.635C280.319 204.462 280.726 204.375 281.168 204.375C281.732 204.375 282.234 204.496 282.676 204.739C283.118 204.973 283.461 205.311 283.703 205.753C283.937 205.337 284.275 205.003 284.717 204.752C285.168 204.501 285.653 204.375 286.173 204.375ZM292.671 205.519C292.905 205.19 293.226 204.917 293.633 204.7C294.049 204.475 294.522 204.362 295.05 204.362C295.666 204.362 296.22 204.514 296.714 204.817C297.217 205.12 297.611 205.554 297.897 206.117C298.192 206.672 298.339 207.317 298.339 208.054C298.339 208.791 298.192 209.445 297.897 210.017C297.611 210.58 297.217 211.018 296.714 211.33C296.22 211.642 295.666 211.798 295.05 211.798C294.522 211.798 294.054 211.69 293.646 211.473C293.248 211.256 292.923 210.983 292.671 210.654V215.113H290.851V204.479H292.671V205.519ZM296.48 208.054C296.48 207.621 296.389 207.248 296.207 206.936C296.034 206.615 295.8 206.373 295.505 206.208C295.219 206.043 294.907 205.961 294.569 205.961C294.24 205.961 293.928 206.048 293.633 206.221C293.347 206.386 293.113 206.628 292.931 206.949C292.758 207.27 292.671 207.647 292.671 208.08C292.671 208.513 292.758 208.89 292.931 209.211C293.113 209.532 293.347 209.779 293.633 209.952C293.928 210.117 294.24 210.199 294.569 210.199C294.907 210.199 295.219 210.112 295.505 209.939C295.8 209.766 296.034 209.519 296.207 209.198C296.389 208.877 296.48 208.496 296.48 208.054ZM301.482 202.061V211.681H299.662V202.061H301.482ZM310.17 204.479L305.711 215.087H303.774L305.334 211.499L302.448 204.479H304.489L306.348 209.51L308.233 204.479H310.17ZM311.957 211.772C311.628 211.772 311.355 211.672 311.138 211.473C310.93 211.265 310.826 211.009 310.826 210.706C310.826 210.403 310.93 210.151 311.138 209.952C311.355 209.744 311.628 209.64 311.957 209.64C312.278 209.64 312.542 209.744 312.75 209.952C312.958 210.151 313.062 210.403 313.062 210.706C313.062 211.009 312.958 211.265 312.75 211.473C312.542 211.672 312.278 211.772 311.957 211.772Z" fill="#01070D"/>
<rect x="161.91" y="133.656" width="221.674" height="10.8664" rx="5.43318" fill="#EDF0F3"/>
<rect x="161.91" y="230.367" width="221.674" height="10.8664" rx="5.43318" fill="#EDF0F3"/>
<rect x="161.91" y="274.919" width="221.674" height="10.8664" rx="5.43318" fill="#EDF0F3"/>
<rect x="161.91" y="318.384" width="135.829" height="10.8664" rx="5.43318" fill="#EDF0F3"/>
<rect x="161.91" y="153.216" width="135.829" height="10.8664" rx="5.43318" fill="#E2E2E2"/>
<rect x="161.91" y="253.186" width="135.829" height="10.8664" rx="5.43318" fill="#E2E2E2"/>
<rect x="161.91" y="297.738" width="105.404" height="10.8664" rx="5.43318" fill="#E2E2E2"/>
<rect x="161.91" y="341.203" width="199.941" height="10.8664" rx="5.43318" fill="#E2E2E2"/>
<path opacity="0.6" d="M167.552 60.6021H173.762V63.5991H163.772V44.7531H167.552V60.6021ZM175.192 56.0661C175.192 54.5541 175.489 53.2131 176.083 52.0431C176.695 50.8731 177.514 49.9731 178.54 49.3431C179.584 48.7131 180.745 48.3981 182.023 48.3981C183.139 48.3981 184.111 48.6231 184.939 49.0731C185.785 49.5231 186.46 50.0901 186.964 50.7741V48.6411H190.771V63.5991H186.964V61.4121C186.478 62.1141 185.803 62.6991 184.939 63.1671C184.093 63.6171 183.112 63.8421 181.996 63.8421C180.736 63.8421 179.584 63.5181 178.54 62.8701C177.514 62.2221 176.695 61.3131 176.083 60.1431C175.489 58.9551 175.192 57.5961 175.192 56.0661ZM186.964 56.1201C186.964 55.2021 186.784 54.4191 186.424 53.7711C186.064 53.1051 185.578 52.6011 184.966 52.2591C184.354 51.8991 183.697 51.7191 182.995 51.7191C182.293 51.7191 181.645 51.8901 181.051 52.2321C180.457 52.5741 179.971 53.0781 179.593 53.7441C179.233 54.3921 179.053 55.1661 179.053 56.0661C179.053 56.9661 179.233 57.7581 179.593 58.4421C179.971 59.1081 180.457 59.6211 181.051 59.9811C181.663 60.3411 182.311 60.5211 182.995 60.5211C183.697 60.5211 184.354 60.3501 184.966 60.0081C185.578 59.6481 186.064 59.1441 186.424 58.4961C186.784 57.8301 186.964 57.0381 186.964 56.1201ZM200.187 63.8421C198.963 63.8421 197.865 63.6261 196.893 63.1941C195.921 62.7441 195.147 62.1411 194.571 61.3851C194.013 60.6291 193.707 59.7921 193.653 58.8741H197.46C197.532 59.4501 197.811 59.9271 198.297 60.3051C198.801 60.6831 199.422 60.8721 200.16 60.8721C200.88 60.8721 201.438 60.7281 201.834 60.4401C202.248 60.1521 202.455 59.7831 202.455 59.3331C202.455 58.8471 202.203 58.4871 201.699 58.2531C201.213 58.0011 200.43 57.7311 199.35 57.4431C198.234 57.1731 197.316 56.8941 196.596 56.6061C195.894 56.3181 195.282 55.8771 194.76 55.2831C194.256 54.6891 194.004 53.8881 194.004 52.8801C194.004 52.0521 194.238 51.2961 194.706 50.6121C195.192 49.9281 195.876 49.3881 196.758 48.9921C197.658 48.5961 198.711 48.3981 199.917 48.3981C201.699 48.3981 203.121 48.8481 204.183 49.7481C205.245 50.6301 205.83 51.8271 205.938 53.3391H202.32C202.266 52.7451 202.014 52.2771 201.564 51.9351C201.132 51.5751 200.547 51.3951 199.809 51.3951C199.125 51.3951 198.594 51.5211 198.216 51.7731C197.856 52.0251 197.676 52.3761 197.676 52.8261C197.676 53.3301 197.928 53.7171 198.432 53.9871C198.936 54.2391 199.719 54.5001 200.781 54.7701C201.861 55.0401 202.752 55.3191 203.454 55.6071C204.156 55.8951 204.759 56.3451 205.263 56.9571C205.785 57.5511 206.055 58.3431 206.073 59.3331C206.073 60.1971 205.83 60.9711 205.344 61.6551C204.876 62.3391 204.192 62.8791 203.292 63.2751C202.41 63.6531 201.375 63.8421 200.187 63.8421ZM213.577 51.7461V58.9821C213.577 59.4861 213.694 59.8551 213.928 60.0891C214.18 60.3051 214.594 60.4131 215.17 60.4131H216.925V63.5991H214.549C211.363 63.5991 209.77 62.0511 209.77 58.9551V51.7461H207.988V48.6411H209.77V44.9421H213.577V48.6411H216.925V51.7461H213.577ZM238.173 46.7781L230.991 63.5991H227.157L234.393 47.2101H225.159V43.9701H238.173V46.7781ZM253.891 44.7531C255.871 44.7531 257.608 45.1401 259.102 45.9141C260.614 46.6881 261.775 47.7951 262.585 49.2351C263.413 50.6571 263.827 52.3131 263.827 54.2031C263.827 56.0931 263.413 57.7491 262.585 59.1711C261.775 60.5751 260.614 61.6641 259.102 62.4381C257.608 63.2121 255.871 63.5991 253.891 63.5991H247.303V44.7531H253.891ZM253.756 60.3861C255.736 60.3861 257.266 59.8461 258.346 58.7661C259.426 57.6861 259.966 56.1651 259.966 54.2031C259.966 52.2411 259.426 50.7111 258.346 49.6131C257.266 48.4971 255.736 47.9391 253.756 47.9391H251.083V60.3861H253.756ZM265.684 56.0661C265.684 54.5541 265.981 53.2131 266.575 52.0431C267.187 50.8731 268.006 49.9731 269.032 49.3431C270.076 48.7131 271.237 48.3981 272.515 48.3981C273.631 48.3981 274.603 48.6231 275.431 49.0731C276.277 49.5231 276.952 50.0901 277.456 50.7741V48.6411H281.263V63.5991H277.456V61.4121C276.97 62.1141 276.295 62.6991 275.431 63.1671C274.585 63.6171 273.604 63.8421 272.488 63.8421C271.228 63.8421 270.076 63.5181 269.032 62.8701C268.006 62.2221 267.187 61.3131 266.575 60.1431C265.981 58.9551 265.684 57.5961 265.684 56.0661ZM277.456 56.1201C277.456 55.2021 277.276 54.4191 276.916 53.7711C276.556 53.1051 276.07 52.6011 275.458 52.2591C274.846 51.8991 274.189 51.7191 273.487 51.7191C272.785 51.7191 272.137 51.8901 271.543 52.2321C270.949 52.5741 270.463 53.0781 270.085 53.7441C269.725 54.3921 269.545 55.1661 269.545 56.0661C269.545 56.9661 269.725 57.7581 270.085 58.4421C270.463 59.1081 270.949 59.6211 271.543 59.9811C272.155 60.3411 272.803 60.5211 273.487 60.5211C274.189 60.5211 274.846 60.3501 275.458 60.0081C276.07 59.6481 276.556 59.1441 276.916 58.4961C277.276 57.8301 277.456 57.0381 277.456 56.1201ZM299.265 48.6411L290.004 70.6731H285.981L289.221 63.2211L283.227 48.6411H287.466L291.327 59.0901L295.242 48.6411H299.265ZM307.027 63.8421C305.803 63.8421 304.705 63.6261 303.733 63.1941C302.761 62.7441 301.987 62.1411 301.411 61.3851C300.853 60.6291 300.547 59.7921 300.493 58.8741H304.3C304.372 59.4501 304.651 59.9271 305.137 60.3051C305.641 60.6831 306.262 60.8721 307 60.8721C307.72 60.8721 308.278 60.7281 308.674 60.4401C309.088 60.1521 309.295 59.7831 309.295 59.3331C309.295 58.8471 309.043 58.4871 308.539 58.2531C308.053 58.0011 307.27 57.7311 306.19 57.4431C305.074 57.1731 304.156 56.8941 303.436 56.6061C302.734 56.3181 302.122 55.8771 301.6 55.2831C301.096 54.6891 300.844 53.8881 300.844 52.8801C300.844 52.0521 301.078 51.2961 301.546 50.6121C302.032 49.9281 302.716 49.3881 303.598 48.9921C304.498 48.5961 305.551 48.3981 306.757 48.3981C308.539 48.3981 309.961 48.8481 311.023 49.7481C312.085 50.6301 312.67 51.8271 312.778 53.3391H309.16C309.106 52.7451 308.854 52.2771 308.404 51.9351C307.972 51.5751 307.387 51.3951 306.649 51.3951C305.965 51.3951 305.434 51.5211 305.056 51.7731C304.696 52.0251 304.516 52.3761 304.516 52.8261C304.516 53.3301 304.768 53.7171 305.272 53.9871C305.776 54.2391 306.559 54.5001 307.621 54.7701C308.701 55.0401 309.592 55.3191 310.294 55.6071C310.996 55.8951 311.599 56.3451 312.103 56.9571C312.625 57.5511 312.895 58.3431 312.913 59.3331C312.913 60.1971 312.67 60.9711 312.184 61.6551C311.716 62.3391 311.032 62.8791 310.132 63.2751C309.25 63.6531 308.215 63.8421 307.027 63.8421Z" fill="#01070D"/>
<rect y="30.4258" width="215.154" height="251.013" rx="10" fill="white"/>
<path opacity="0.6" d="M27.7103 70.4199V72.6949H30.7653V74.1379H27.7103V76.5429H31.1553V78.0249H25.8903V68.9379H31.1553V70.4199H27.7103ZM32.3413 74.3979C32.3413 73.6699 32.4843 73.0242 32.7703 72.4609C33.065 71.8976 33.4593 71.4642 33.9533 71.1609C34.456 70.8576 35.015 70.7059 35.6303 70.7059C36.1676 70.7059 36.6356 70.8142 37.0343 71.0309C37.4416 71.2476 37.7666 71.5206 38.0093 71.8499V70.8229H39.8423V78.0249H38.0093V76.9719C37.7753 77.3099 37.4503 77.5916 37.0343 77.8169C36.627 78.0336 36.1546 78.1419 35.6173 78.1419C35.0106 78.1419 34.456 77.9859 33.9533 77.6739C33.4593 77.3619 33.065 76.9242 32.7703 76.3609C32.4843 75.7889 32.3413 75.1346 32.3413 74.3979ZM38.0093 74.4239C38.0093 73.9819 37.9226 73.6049 37.7493 73.2929C37.576 72.9722 37.342 72.7296 37.0473 72.5649C36.7526 72.3916 36.4363 72.3049 36.0983 72.3049C35.7603 72.3049 35.4483 72.3872 35.1623 72.5519C34.8763 72.7166 34.6423 72.9592 34.4603 73.2799C34.287 73.5919 34.2003 73.9646 34.2003 74.3979C34.2003 74.8312 34.287 75.2126 34.4603 75.5419C34.6423 75.8626 34.8763 76.1096 35.1623 76.2829C35.457 76.4562 35.769 76.5429 36.0983 76.5429C36.4363 76.5429 36.7526 76.4606 37.0473 76.2959C37.342 76.1226 37.576 75.8799 37.7493 75.5679C37.9226 75.2472 38.0093 74.8659 38.0093 74.4239ZM43.4398 71.9409C43.6738 71.5596 43.9772 71.2606 44.3498 71.0439C44.7312 70.8272 45.1645 70.7189 45.6498 70.7189V72.6299H45.1688C44.5968 72.6299 44.1635 72.7642 43.8688 73.0329C43.5828 73.3016 43.4398 73.7696 43.4398 74.4369V78.0249H41.6198V70.8229H43.4398V71.9409ZM50.8667 70.7189C51.7247 70.7189 52.418 70.9919 52.9467 71.5379C53.4754 72.0752 53.7397 72.8292 53.7397 73.7999V78.0249H51.9197V74.0469C51.9197 73.4749 51.7767 73.0372 51.4907 72.7339C51.2047 72.4219 50.8147 72.2659 50.3207 72.2659C49.818 72.2659 49.4194 72.4219 49.1247 72.7339C48.8387 73.0372 48.6957 73.4749 48.6957 74.0469V78.0249H46.8757V70.8229H48.6957V71.7199C48.9384 71.4079 49.246 71.1652 49.6187 70.9919C50 70.8099 50.416 70.7189 50.8667 70.7189ZM56.3934 69.9649C56.0728 69.9649 55.8041 69.8652 55.5874 69.6659C55.3794 69.4579 55.2754 69.2022 55.2754 68.8989C55.2754 68.5956 55.3794 68.3442 55.5874 68.1449C55.8041 67.9369 56.0728 67.8329 56.3934 67.8329C56.7141 67.8329 56.9784 67.9369 57.1864 68.1449C57.4031 68.3442 57.5114 68.5956 57.5114 68.8989C57.5114 69.2022 57.4031 69.4579 57.1864 69.6659C56.9784 69.8652 56.7141 69.9649 56.3934 69.9649ZM57.2904 70.8229V78.0249H55.4704V70.8229H57.2904ZM63.0796 70.7189C63.9376 70.7189 64.6309 70.9919 65.1596 71.5379C65.6883 72.0752 65.9526 72.8292 65.9526 73.7999V78.0249H64.1326V74.0469C64.1326 73.4749 63.9896 73.0372 63.7036 72.7339C63.4176 72.4219 63.0276 72.2659 62.5336 72.2659C62.0309 72.2659 61.6323 72.4219 61.3376 72.7339C61.0516 73.0372 60.9086 73.4749 60.9086 74.0469V78.0249H59.0886V70.8229H60.9086V71.7199C61.1513 71.4079 61.4589 71.1652 61.8316 70.9919C62.2129 70.8099 62.6289 70.7189 63.0796 70.7189ZM70.5043 70.7059C71.0416 70.7059 71.514 70.8142 71.9213 71.0309C72.3286 71.2389 72.6493 71.5119 72.8833 71.8499V70.8229H74.7163V78.0769C74.7163 78.7442 74.582 79.3379 74.3133 79.8579C74.0446 80.3866 73.6416 80.8026 73.1043 81.1059C72.567 81.4179 71.917 81.5739 71.1543 81.5739C70.1316 81.5739 69.291 81.3356 68.6323 80.8589C67.9823 80.3822 67.614 79.7322 67.5273 78.9089H69.3343C69.4296 79.2382 69.6333 79.4982 69.9453 79.6889C70.266 79.8882 70.6516 79.9879 71.1023 79.9879C71.631 79.9879 72.06 79.8276 72.3893 79.5069C72.7186 79.1949 72.8833 78.7182 72.8833 78.0769V76.9589C72.6493 77.2969 72.3243 77.5786 71.9083 77.8039C71.501 78.0292 71.033 78.1419 70.5043 78.1419C69.8976 78.1419 69.343 77.9859 68.8403 77.6739C68.3376 77.3619 67.939 76.9242 67.6443 76.3609C67.3583 75.7889 67.2153 75.1346 67.2153 74.3979C67.2153 73.6699 67.3583 73.0242 67.6443 72.4609C67.939 71.8976 68.3333 71.4642 68.8273 71.1609C69.33 70.8576 69.889 70.7059 70.5043 70.7059ZM72.8833 74.4239C72.8833 73.9819 72.7966 73.6049 72.6233 73.2929C72.45 72.9722 72.216 72.7296 71.9213 72.5649C71.6266 72.3916 71.3103 72.3049 70.9723 72.3049C70.6343 72.3049 70.3223 72.3872 70.0363 72.5519C69.7503 72.7166 69.5163 72.9592 69.3343 73.2799C69.161 73.5919 69.0743 73.9646 69.0743 74.3979C69.0743 74.8312 69.161 75.2126 69.3343 75.5419C69.5163 75.8626 69.7503 76.1096 70.0363 76.2829C70.331 76.4562 70.643 76.5429 70.9723 76.5429C71.3103 76.5429 71.6266 76.4606 71.9213 76.2959C72.216 76.1226 72.45 75.8799 72.6233 75.5679C72.7966 75.2472 72.8833 74.8659 72.8833 74.4239ZM79.2499 78.1419C78.6605 78.1419 78.1319 78.0379 77.6639 77.8299C77.1959 77.6132 76.8232 77.3229 76.5459 76.9589C76.2772 76.5949 76.1299 76.1919 76.1039 75.7499H77.9369C77.9715 76.0272 78.1059 76.2569 78.3399 76.4389C78.5825 76.6209 78.8815 76.7119 79.2369 76.7119C79.5835 76.7119 79.8522 76.6426 80.0429 76.5039C80.2422 76.3652 80.3419 76.1876 80.3419 75.9709C80.3419 75.7369 80.2205 75.5636 79.9779 75.4509C79.7439 75.3296 79.3669 75.1996 78.8469 75.0609C78.3095 74.9309 77.8675 74.7966 77.5209 74.6579C77.1829 74.5192 76.8882 74.3069 76.6369 74.0209C76.3942 73.7349 76.2729 73.3492 76.2729 72.8639C76.2729 72.4652 76.3855 72.1012 76.6109 71.7719C76.8449 71.4426 77.1742 71.1826 77.5989 70.9919C78.0322 70.8012 78.5392 70.7059 79.1199 70.7059C79.9779 70.7059 80.6625 70.9226 81.1739 71.3559C81.6852 71.7806 81.9669 72.3569 82.0189 73.0849H80.2769C80.2509 72.7989 80.1295 72.5736 79.9129 72.4089C79.7049 72.2356 79.4232 72.1489 79.0679 72.1489C78.7385 72.1489 78.4829 72.2096 78.3009 72.3309C78.1275 72.4522 78.0409 72.6212 78.0409 72.8379C78.0409 73.0806 78.1622 73.2669 78.4049 73.3969C78.6475 73.5182 79.0245 73.6439 79.5359 73.7739C80.0559 73.9039 80.4849 74.0382 80.8229 74.1769C81.1609 74.3156 81.4512 74.5322 81.6939 74.8269C81.9452 75.1129 82.0752 75.4942 82.0839 75.9709C82.0839 76.3869 81.9669 76.7596 81.7329 77.0889C81.5075 77.4182 81.1782 77.6782 80.7449 77.8689C80.3202 78.0509 79.8219 78.1419 79.2499 78.1419Z" fill="black"/>
<path opacity="0.6" d="M38.0341 116.914C38.0341 117.712 37.8271 118.463 37.4131 119.168C37.0144 119.858 36.4164 120.433 35.6191 120.893C34.8371 121.338 33.9094 121.599 32.8361 121.675V123.538H31.3641V121.652C29.8307 121.514 28.5964 121.054 27.6611 120.272C26.7257 119.475 26.2427 118.402 26.2121 117.052H29.6621C29.7541 118.156 30.3214 118.823 31.3641 119.053V114.66C30.2601 114.384 29.3707 114.108 28.6961 113.832C28.0214 113.556 27.4387 113.112 26.9481 112.498C26.4574 111.885 26.2121 111.049 26.2121 109.991C26.2121 108.657 26.6874 107.569 27.6381 106.725C28.6041 105.882 29.8461 105.399 31.3641 105.276V103.413H32.8361V105.276C34.3081 105.399 35.4811 105.844 36.3551 106.61C37.2444 107.377 37.7427 108.435 37.8501 109.784H34.3771C34.3311 109.34 34.1701 108.956 33.8941 108.634C33.6334 108.297 33.2807 108.059 32.8361 107.921V112.268C33.9861 112.56 34.8907 112.843 35.5501 113.119C36.2247 113.38 36.8074 113.817 37.2981 114.43C37.7887 115.028 38.0341 115.856 38.0341 116.914ZM29.5701 109.83C29.5701 110.336 29.7234 110.75 30.0301 111.072C30.3367 111.379 30.7814 111.632 31.3641 111.831V107.852C30.8121 107.929 30.3751 108.136 30.0531 108.473C29.7311 108.811 29.5701 109.263 29.5701 109.83ZM32.8361 119.099C33.4187 118.992 33.8711 118.754 34.1931 118.386C34.5304 118.018 34.6991 117.574 34.6991 117.052C34.6991 116.546 34.5381 116.14 34.2161 115.833C33.8941 115.527 33.4341 115.274 32.8361 115.074V119.099ZM44.9869 116.822C45.1096 117.497 45.3856 118.018 45.8149 118.386C46.2596 118.739 46.8499 118.915 47.5859 118.915C48.5366 118.915 49.2266 118.524 49.6559 117.742C50.0852 116.945 50.2999 115.611 50.2999 113.74C49.9472 114.231 49.4489 114.614 48.8049 114.89C48.1762 115.166 47.4939 115.304 46.7579 115.304C45.7766 115.304 44.8872 115.105 44.0899 114.706C43.3079 114.292 42.6869 113.687 42.2269 112.889C41.7669 112.077 41.5369 111.095 41.5369 109.945C41.5369 108.243 42.0429 106.894 43.0549 105.897C44.0669 104.885 45.4469 104.379 47.1949 104.379C49.3722 104.379 50.9056 105.077 51.7949 106.472C52.6996 107.868 53.1519 109.968 53.1519 112.774C53.1519 114.768 52.9756 116.401 52.6229 117.673C52.2856 118.946 51.6952 119.912 50.8519 120.571C50.0239 121.231 48.8892 121.56 47.4479 121.56C46.3132 121.56 45.3472 121.346 44.5499 120.916C43.7526 120.472 43.1392 119.897 42.7099 119.191C42.2959 118.471 42.0582 117.681 41.9969 116.822H44.9869ZM47.4249 112.682C48.2222 112.682 48.8509 112.437 49.3109 111.946C49.7709 111.456 50.0009 110.796 50.0009 109.968C50.0009 109.064 49.7556 108.366 49.2649 107.875C48.7896 107.369 48.1379 107.116 47.3099 107.116C46.4819 107.116 45.8226 107.377 45.3319 107.898C44.8566 108.404 44.6189 109.079 44.6189 109.922C44.6189 110.735 44.8489 111.402 45.3089 111.923C45.7842 112.429 46.4896 112.682 47.4249 112.682ZM64.3524 108.956C64.199 108.312 63.9307 107.829 63.5474 107.507C63.1794 107.185 62.6427 107.024 61.9374 107.024C60.8794 107.024 60.0974 107.454 59.5914 108.312C59.1007 109.156 58.8477 110.536 58.8324 112.452C59.2004 111.839 59.737 111.364 60.4424 111.026C61.1477 110.674 61.9144 110.497 62.7424 110.497C63.739 110.497 64.6207 110.712 65.3874 111.141C66.154 111.571 66.752 112.199 67.1814 113.027C67.6107 113.84 67.8254 114.821 67.8254 115.971C67.8254 117.06 67.603 118.034 67.1584 118.892C66.729 119.736 66.0927 120.395 65.2494 120.87C64.406 121.346 63.4017 121.583 62.2364 121.583C60.6417 121.583 59.3844 121.231 58.4644 120.525C57.5597 119.82 56.9234 118.839 56.5554 117.581C56.2027 116.309 56.0264 114.745 56.0264 112.889C56.0264 110.083 56.5094 107.967 57.4754 106.541C58.4414 105.1 59.967 104.379 62.0524 104.379C63.6624 104.379 64.912 104.816 65.8014 105.69C66.6907 106.564 67.2044 107.653 67.3424 108.956H64.3524ZM62.0064 113.142C61.1937 113.142 60.5114 113.38 59.9594 113.855C59.4074 114.331 59.1314 115.021 59.1314 115.925C59.1314 116.83 59.3844 117.543 59.8904 118.064C60.4117 118.586 61.14 118.846 62.0754 118.846C62.9034 118.846 63.555 118.593 64.0304 118.087C64.521 117.581 64.7664 116.899 64.7664 116.04C64.7664 115.151 64.5287 114.446 64.0534 113.924C63.5934 113.403 62.911 113.142 62.0064 113.142ZM81.0423 107.208L74.9243 121.537H71.6583L77.8223 107.576H69.9563V104.816H81.0423V107.208ZM93.6429 107.208L87.5249 121.537H84.2589L90.4229 107.576H82.5569V104.816H93.6429V107.208ZM97.3654 121.698C96.7828 121.698 96.2998 121.522 95.9164 121.169C95.5484 120.801 95.3644 120.349 95.3644 119.812C95.3644 119.276 95.5484 118.831 95.9164 118.478C96.2998 118.11 96.7828 117.926 97.3654 117.926C97.9328 117.926 98.4004 118.11 98.7684 118.478C99.1364 118.831 99.3204 119.276 99.3204 119.812C99.3204 120.349 99.1364 120.801 98.7684 121.169C98.4004 121.522 97.9328 121.698 97.3654 121.698ZM101.546 112.935C101.546 110.283 102.021 108.205 102.972 106.702C103.938 105.2 105.533 104.448 107.756 104.448C109.979 104.448 111.566 105.2 112.517 106.702C113.483 108.205 113.966 110.283 113.966 112.935C113.966 115.603 113.483 117.696 112.517 119.214C111.566 120.732 109.979 121.491 107.756 121.491C105.533 121.491 103.938 120.732 102.972 119.214C102.021 117.696 101.546 115.603 101.546 112.935ZM110.792 112.935C110.792 111.801 110.715 110.85 110.562 110.083C110.424 109.301 110.133 108.665 109.688 108.174C109.259 107.684 108.615 107.438 107.756 107.438C106.897 107.438 106.246 107.684 105.801 108.174C105.372 108.665 105.08 109.301 104.927 110.083C104.789 110.85 104.72 111.801 104.72 112.935C104.72 114.101 104.789 115.082 104.927 115.879C105.065 116.661 105.356 117.298 105.801 117.788C106.246 118.264 106.897 118.501 107.756 118.501C108.615 118.501 109.266 118.264 109.711 117.788C110.156 117.298 110.447 116.661 110.585 115.879C110.723 115.082 110.792 114.101 110.792 112.935ZM116.277 118.271V115.741L123.798 104.977H127.547V115.465H129.571V118.271H127.547V121.537H124.327V118.271H116.277ZM124.534 108.427L119.819 115.465H124.534V108.427Z" fill="black"/>
<path opacity="0.6" d="M33.4821 137.422L30.0631 146.483H28.6981L25.2791 137.422H26.5401L29.3871 145.235L32.2341 137.422H33.4821ZM35.3902 138.202C35.1649 138.202 34.9742 138.124 34.8182 137.968C34.6622 137.812 34.5842 137.621 34.5842 137.396C34.5842 137.171 34.6622 136.98 34.8182 136.824C34.9742 136.668 35.1649 136.59 35.3902 136.59C35.6069 136.59 35.7889 136.668 35.9362 136.824C36.0922 136.98 36.1702 137.171 36.1702 137.396C36.1702 137.621 36.0922 137.812 35.9362 137.968C35.7889 138.124 35.6069 138.202 35.3902 138.202ZM35.9622 139.359V146.483H34.7792V139.359H35.9622ZM44.4784 142.648C44.4784 142.873 44.4654 143.112 44.4394 143.363H38.7454C38.7888 144.065 39.0271 144.615 39.4604 145.014C39.9024 145.404 40.4354 145.599 41.0594 145.599C41.5708 145.599 41.9954 145.482 42.3334 145.248C42.6801 145.005 42.9228 144.685 43.0614 144.286H44.3354C44.1448 144.971 43.7634 145.53 43.1914 145.963C42.6194 146.388 41.9088 146.6 41.0594 146.6C40.3834 146.6 39.7768 146.448 39.2394 146.145C38.7108 145.842 38.2948 145.413 37.9914 144.858C37.6881 144.295 37.5364 143.645 37.5364 142.908C37.5364 142.171 37.6838 141.526 37.9784 140.971C38.2731 140.416 38.6848 139.992 39.2134 139.697C39.7508 139.394 40.3661 139.242 41.0594 139.242C41.7354 139.242 42.3334 139.389 42.8534 139.684C43.3734 139.979 43.7721 140.386 44.0494 140.906C44.3354 141.417 44.4784 141.998 44.4784 142.648ZM43.2564 142.401C43.2564 141.95 43.1568 141.565 42.9574 141.244C42.7581 140.915 42.4851 140.668 42.1384 140.503C41.8004 140.33 41.4234 140.243 41.0074 140.243C40.4094 140.243 39.8981 140.434 39.4734 140.815C39.0574 141.196 38.8191 141.725 38.7584 142.401H43.2564ZM55.53 139.359L53.307 146.483H52.085L50.369 140.828L48.653 146.483H47.431L45.195 139.359H46.404L48.042 145.339L49.81 139.359H51.019L52.748 145.352L54.36 139.359H55.53ZM59.226 146.6C58.68 146.6 58.1904 146.509 57.757 146.327C57.3237 146.136 56.9814 145.876 56.73 145.547C56.4787 145.209 56.34 144.823 56.314 144.39H57.536C57.5707 144.745 57.7354 145.036 58.03 145.261C58.3334 145.486 58.7277 145.599 59.213 145.599C59.6637 145.599 60.019 145.499 60.279 145.3C60.539 145.101 60.669 144.849 60.669 144.546C60.669 144.234 60.5304 144.004 60.253 143.857C59.9757 143.701 59.5467 143.549 58.966 143.402C58.4374 143.263 58.004 143.125 57.666 142.986C57.3367 142.839 57.0507 142.626 56.808 142.349C56.574 142.063 56.457 141.69 56.457 141.231C56.457 140.867 56.5654 140.533 56.782 140.23C56.9987 139.927 57.3064 139.688 57.705 139.515C58.1037 139.333 58.5587 139.242 59.07 139.242C59.8587 139.242 60.4957 139.441 60.981 139.84C61.4664 140.239 61.7264 140.785 61.761 141.478H60.578C60.552 141.105 60.4004 140.806 60.123 140.581C59.8544 140.356 59.4904 140.243 59.031 140.243C58.6064 140.243 58.2684 140.334 58.017 140.516C57.7657 140.698 57.64 140.936 57.64 141.231C57.64 141.465 57.7137 141.66 57.861 141.816C58.017 141.963 58.2077 142.085 58.433 142.18C58.667 142.267 58.9877 142.366 59.395 142.479C59.9064 142.618 60.3224 142.756 60.643 142.895C60.9637 143.025 61.2367 143.224 61.462 143.493C61.696 143.762 61.8174 144.113 61.826 144.546C61.826 144.936 61.7177 145.287 61.501 145.599C61.2844 145.911 60.9767 146.158 60.578 146.34C60.188 146.513 59.7374 146.6 59.226 146.6Z" fill="black"/>
<path d="M39.1193 202.716C39.1193 200.23 41.1341 198.216 43.6193 198.216H44.3991C46.8843 198.216 48.8991 200.23 48.8991 202.716V247.753H39.1193V202.716Z" fill="#1D92FF"/>
<path d="M67.3719 206.413C67.3719 203.927 69.3866 201.913 71.8719 201.913H72.6516C75.1369 201.913 77.1516 203.927 77.1516 206.413V247.753H67.3719V206.413Z" fill="#1D92FF"/>
<path d="M95.6245 218.982C95.6245 216.496 97.6392 214.482 100.125 214.482H100.904C103.39 214.482 105.404 216.496 105.404 218.982V247.753H95.6245V218.982Z" fill="#1D92FF"/>
<path d="M123.877 186.45C123.877 183.965 125.892 181.95 128.377 181.95H129.157C131.642 181.95 133.657 183.965 133.657 186.45V247.753H123.877V186.45Z" fill="#1D92FF"/>
<path d="M152.13 199.019C152.13 196.534 154.144 194.519 156.63 194.519H157.409C159.895 194.519 161.909 196.534 161.909 199.019V247.753H152.13V199.019Z" fill="#1D92FF"/>
<path d="M180.382 218.982C180.382 216.496 182.397 214.482 184.882 214.482H185.662C188.147 214.482 190.162 216.496 190.162 218.982V247.753H180.382V218.982Z" fill="#1D92FF"/>
<path opacity="0.15" d="M24.9935 213.806C24.9935 211.321 27.0082 209.306 29.4935 209.306H30.2732C32.7585 209.306 34.7732 211.321 34.7732 213.806V247.753H24.9935V213.806Z" fill="#1D92FF"/>
<path opacity="0.15" d="M53.2461 183.492C53.2461 181.007 55.2608 178.992 57.7461 178.992H58.5258C61.0111 178.992 63.0258 181.007 63.0258 183.492V247.753H53.2461V183.492Z" fill="#1D92FF"/>
<path opacity="0.15" d="M81.4987 180.535C81.4987 178.05 83.5134 176.035 85.9987 176.035H86.7784C89.2637 176.035 91.2784 178.05 91.2784 180.535V247.753H81.4987V180.535Z" fill="#1D92FF"/>
<path opacity="0.15" d="M109.751 206.413C109.751 203.927 111.766 201.913 114.251 201.913H115.031C117.516 201.913 119.531 203.927 119.531 206.413V247.753H109.751V206.413Z" fill="#1D92FF"/>
<path opacity="0.15" d="M138.004 229.333C138.004 226.847 140.019 224.833 142.504 224.833H143.284C145.769 224.833 147.784 226.847 147.784 229.333V247.753H138.004V229.333Z" fill="#1D92FF"/>
<path opacity="0.15" d="M166.256 183.492C166.256 181.007 168.271 178.992 170.756 178.992H171.536C174.021 178.992 176.036 181.007 176.036 183.492V247.753H166.256V183.492Z" fill="#1D92FF"/>
<rect x="180.381" y="341.203" width="229.28" height="192.334" rx="22" fill="white"/>
<path d="M195.594 460.734C209.513 431.503 221.452 428.819 242.236 441.855C249.357 446.322 258.669 446.937 264.05 440.479C277.019 424.914 280.609 405.451 304.235 417.302C310.582 420.486 318.322 421.65 323.293 416.58C334.041 405.619 336.741 390.492 357.958 399.98C365.242 403.237 374.947 405.326 380.81 399.914C384.082 396.893 388.261 391.255 394.992 379.236" stroke="#FE7382" stroke-linecap="round" stroke-linejoin="round"/>
<path d="M242.236 441.855C221.452 428.819 209.513 431.503 195.594 460.734H394.992V379.236C388.261 391.255 384.082 396.893 380.81 399.914C374.947 405.326 365.242 403.237 357.958 399.98C336.741 390.492 334.041 405.619 323.293 416.58C318.322 421.65 310.582 420.486 304.235 417.302C280.609 405.451 277.019 424.914 264.05 440.479C258.669 446.937 249.357 446.322 242.236 441.855Z" fill="url(#paint0_linear_0_268)"/>
<circle cx="265.682" cy="438.457" r="2.71659" fill="#FE7382"/>
<circle cx="338.487" cy="399.339" r="2.71659" fill="#FE7382"/>
<rect x="251.012" y="482.466" width="39.1189" height="5.43318" rx="2.5" fill="#EFEEEE"/>
<circle cx="247.209" cy="485.183" r="1.62995" fill="#FE7382"/>
<rect x="306.431" y="482.466" width="39.1189" height="5.43318" rx="2.5" fill="#EFEEEE"/>
<circle cx="302.628" cy="485.183" r="1.62995" fill="#FE7382"/>
<g opacity="0.5">
<path d="M209.894 504.079C209.821 503.772 209.688 503.542 209.494 503.389C209.301 503.236 209.031 503.159 208.684 503.159C208.158 503.159 207.764 503.362 207.504 503.769C207.244 504.169 207.108 504.836 207.094 505.769C207.268 505.476 207.521 505.249 207.854 505.089C208.188 504.929 208.548 504.849 208.934 504.849C209.374 504.849 209.761 504.946 210.094 505.139C210.434 505.326 210.698 505.599 210.884 505.959C211.078 506.319 211.174 506.749 211.174 507.249C211.174 507.716 211.081 508.132 210.894 508.499C210.714 508.866 210.444 509.156 210.084 509.369C209.724 509.576 209.291 509.679 208.784 509.679C208.098 509.679 207.558 509.529 207.164 509.229C206.778 508.922 206.504 508.492 206.344 507.939C206.191 507.386 206.114 506.696 206.114 505.869C206.114 503.429 206.974 502.209 208.694 502.209C209.361 502.209 209.884 502.389 210.264 502.749C210.651 503.109 210.878 503.552 210.944 504.079H209.894ZM208.684 505.809C208.278 505.809 207.931 505.932 207.644 506.179C207.364 506.419 207.224 506.769 207.224 507.229C207.224 507.689 207.354 508.056 207.614 508.329C207.881 508.596 208.251 508.729 208.724 508.729C209.144 508.729 209.474 508.599 209.714 508.339C209.961 508.079 210.084 507.732 210.084 507.299C210.084 506.846 209.964 506.486 209.724 506.219C209.491 505.946 209.144 505.809 208.684 505.809ZM217.01 503.269L214.23 509.679H213.08L215.89 503.389H212.19V502.419H217.01V503.269Z" fill="#01070D"/>
<path d="M234.37 505.869C233.677 505.522 233.33 504.976 233.33 504.229C233.33 503.869 233.42 503.539 233.6 503.239C233.78 502.939 234.05 502.702 234.41 502.529C234.77 502.349 235.21 502.259 235.73 502.259C236.243 502.259 236.68 502.349 237.04 502.529C237.407 502.702 237.68 502.939 237.86 503.239C238.04 503.539 238.13 503.869 238.13 504.229C238.13 504.602 238.033 504.932 237.84 505.219C237.653 505.499 237.403 505.716 237.09 505.869C237.47 506.009 237.77 506.239 237.99 506.559C238.21 506.872 238.32 507.242 238.32 507.669C238.32 508.102 238.21 508.486 237.99 508.819C237.77 509.152 237.463 509.409 237.07 509.589C236.677 509.769 236.23 509.859 235.73 509.859C235.23 509.859 234.783 509.769 234.39 509.589C234.003 509.409 233.7 509.152 233.48 508.819C233.26 508.486 233.15 508.102 233.15 507.669C233.15 507.236 233.26 506.862 233.48 506.549C233.7 506.236 233.997 506.009 234.37 505.869ZM237.04 504.369C237.04 503.996 236.923 503.709 236.69 503.509C236.457 503.309 236.137 503.209 235.73 503.209C235.33 503.209 235.013 503.309 234.78 503.509C234.547 503.709 234.43 503.999 234.43 504.379C234.43 504.712 234.55 504.986 234.79 505.199C235.037 505.406 235.35 505.509 235.73 505.509C236.11 505.509 236.423 505.402 236.67 505.189C236.917 504.976 237.04 504.702 237.04 504.369ZM235.73 506.369C235.29 506.369 234.93 506.479 234.65 506.699C234.377 506.912 234.24 507.222 234.24 507.629C234.24 508.009 234.373 508.319 234.64 508.559C234.907 508.792 235.27 508.909 235.73 508.909C236.183 508.909 236.54 508.789 236.8 508.549C237.067 508.309 237.2 508.002 237.2 507.629C237.2 507.229 237.063 506.919 236.79 506.699C236.523 506.479 236.17 506.369 235.73 506.369ZM244.137 503.269L241.357 509.679H240.207L243.017 503.389H239.317V502.419H244.137V503.269Z" fill="#01070D"/>
<path d="M260.937 508.129C261.577 507.576 262.08 507.122 262.447 506.769C262.82 506.409 263.13 506.036 263.377 505.649C263.623 505.262 263.747 504.876 263.747 504.489C263.747 504.089 263.65 503.776 263.457 503.549C263.27 503.322 262.973 503.209 262.567 503.209C262.173 503.209 261.867 503.336 261.647 503.589C261.433 503.836 261.32 504.169 261.307 504.589H260.207C260.227 503.829 260.453 503.249 260.887 502.849C261.327 502.442 261.883 502.239 262.557 502.239C263.283 502.239 263.85 502.439 264.257 502.839C264.67 503.239 264.877 503.772 264.877 504.439C264.877 504.919 264.753 505.382 264.507 505.829C264.267 506.269 263.977 506.666 263.637 507.019C263.303 507.366 262.877 507.769 262.357 508.229L261.907 508.629H265.077V509.579H260.217V508.749L260.937 508.129ZM270.698 503.269L267.918 509.679H266.768L269.578 503.389H265.878V502.419H270.698V503.269Z" fill="#01070D"/>
<path d="M287.332 508.159V507.299L290.692 502.479H292.072V507.169H293.002V508.159H292.072V509.679H290.952V508.159H287.332ZM291.002 503.639L288.642 507.169H291.002V503.639ZM298.647 503.369H295.297V505.359C295.437 505.172 295.643 505.016 295.917 504.889C296.197 504.762 296.493 504.699 296.807 504.699C297.367 504.699 297.82 504.819 298.167 505.059C298.52 505.299 298.77 505.602 298.917 505.969C299.07 506.336 299.147 506.722 299.147 507.129C299.147 507.622 299.05 508.062 298.857 508.449C298.67 508.829 298.387 509.129 298.007 509.349C297.633 509.569 297.173 509.679 296.627 509.679C295.9 509.679 295.317 509.499 294.877 509.139C294.437 508.779 294.173 508.302 294.087 507.709H295.197C295.27 508.022 295.433 508.272 295.687 508.459C295.94 508.639 296.257 508.729 296.637 508.729C297.11 508.729 297.463 508.586 297.697 508.299C297.937 508.012 298.057 507.632 298.057 507.159C298.057 506.679 297.937 506.312 297.697 506.059C297.457 505.799 297.103 505.669 296.637 505.669C296.31 505.669 296.033 505.752 295.807 505.919C295.587 506.079 295.427 506.299 295.327 506.579H294.247V502.369H298.647V503.369Z" fill="#01070D"/>
<path d="M315.585 508.159V507.299L318.945 502.479H320.325V507.169H321.255V508.159H320.325V509.679H319.205V508.159H315.585ZM319.255 503.639L316.895 507.169H319.255V503.639ZM322.199 505.939C322.199 504.786 322.393 503.886 322.779 503.239C323.173 502.586 323.846 502.259 324.799 502.259C325.753 502.259 326.423 502.586 326.809 503.239C327.203 503.886 327.399 504.786 327.399 505.939C327.399 507.106 327.203 508.019 326.809 508.679C326.423 509.332 325.753 509.659 324.799 509.659C323.846 509.659 323.173 509.332 322.779 508.679C322.393 508.019 322.199 507.106 322.199 505.939ZM326.279 505.939C326.279 505.399 326.243 504.942 326.169 504.569C326.103 504.196 325.963 503.892 325.749 503.659C325.536 503.419 325.219 503.299 324.799 503.299C324.379 503.299 324.063 503.419 323.849 503.659C323.636 503.892 323.493 504.196 323.419 504.569C323.353 504.942 323.319 505.399 323.319 505.939C323.319 506.499 323.353 506.969 323.419 507.349C323.486 507.729 323.626 508.036 323.839 508.269C324.059 508.502 324.379 508.619 324.799 508.619C325.219 508.619 325.536 508.502 325.749 508.269C325.969 508.036 326.113 507.729 326.179 507.349C326.246 506.969 326.279 506.499 326.279 505.939Z" fill="#01070D"/>
<path d="M348.677 503.369H345.327V505.359C345.467 505.172 345.674 505.016 345.947 504.889C346.227 504.762 346.524 504.699 346.837 504.699C347.397 504.699 347.851 504.819 348.197 505.059C348.551 505.299 348.801 505.602 348.947 505.969C349.101 506.336 349.177 506.722 349.177 507.129C349.177 507.622 349.081 508.062 348.887 508.449C348.701 508.829 348.417 509.129 348.037 509.349C347.664 509.569 347.204 509.679 346.657 509.679C345.931 509.679 345.347 509.499 344.907 509.139C344.467 508.779 344.204 508.302 344.117 507.709H345.227C345.301 508.022 345.464 508.272 345.717 508.459C345.971 508.639 346.287 508.729 346.667 508.729C347.141 508.729 347.494 508.586 347.727 508.299C347.967 508.012 348.087 507.632 348.087 507.159C348.087 506.679 347.967 506.312 347.727 506.059C347.487 505.799 347.134 505.669 346.667 505.669C346.341 505.669 346.064 505.752 345.837 505.919C345.617 506.079 345.457 506.299 345.357 506.579H344.277V502.369H348.677V503.369ZM350.364 505.939C350.364 504.786 350.557 503.886 350.944 503.239C351.337 502.586 352.011 502.259 352.964 502.259C353.917 502.259 354.587 502.586 354.974 503.239C355.367 503.886 355.564 504.786 355.564 505.939C355.564 507.106 355.367 508.019 354.974 508.679C354.587 509.332 353.917 509.659 352.964 509.659C352.011 509.659 351.337 509.332 350.944 508.679C350.557 508.019 350.364 507.106 350.364 505.939ZM354.444 505.939C354.444 505.399 354.407 504.942 354.334 504.569C354.267 504.196 354.127 503.892 353.914 503.659C353.701 503.419 353.384 503.299 352.964 503.299C352.544 503.299 352.227 503.419 352.014 503.659C351.801 503.892 351.657 504.196 351.584 504.569C351.517 504.942 351.484 505.399 351.484 505.939C351.484 506.499 351.517 506.969 351.584 507.349C351.651 507.729 351.791 508.036 352.004 508.269C352.224 508.502 352.544 508.619 352.964 508.619C353.384 508.619 353.701 508.502 353.914 508.269C354.134 508.036 354.277 507.729 354.344 507.349C354.411 506.969 354.444 506.499 354.444 505.939Z" fill="#01070D"/>
<path d="M376.15 504.079C376.077 503.772 375.943 503.542 375.75 503.389C375.557 503.236 375.287 503.159 374.94 503.159C374.413 503.159 374.02 503.362 373.76 503.769C373.5 504.169 373.363 504.836 373.35 505.769C373.523 505.476 373.777 505.249 374.11 505.089C374.443 504.929 374.803 504.849 375.19 504.849C375.63 504.849 376.017 504.946 376.35 505.139C376.69 505.326 376.953 505.599 377.14 505.959C377.333 506.319 377.43 506.749 377.43 507.249C377.43 507.716 377.337 508.132 377.15 508.499C376.97 508.866 376.7 509.156 376.34 509.369C375.98 509.576 375.547 509.679 375.04 509.679C374.353 509.679 373.813 509.529 373.42 509.229C373.033 508.922 372.76 508.492 372.6 507.939C372.447 507.386 372.37 506.696 372.37 505.869C372.37 503.429 373.23 502.209 374.95 502.209C375.617 502.209 376.14 502.389 376.52 502.749C376.907 503.109 377.133 503.552 377.2 504.079H376.15ZM374.94 505.809C374.533 505.809 374.187 505.932 373.9 506.179C373.62 506.419 373.48 506.769 373.48 507.229C373.48 507.689 373.61 508.056 373.87 508.329C374.137 508.596 374.507 508.729 374.98 508.729C375.4 508.729 375.73 508.599 375.97 508.339C376.217 508.079 376.34 507.732 376.34 507.299C376.34 506.846 376.22 506.486 375.98 506.219C375.747 505.946 375.4 505.809 374.94 505.809ZM378.646 505.939C378.646 504.786 378.839 503.886 379.226 503.239C379.619 502.586 380.293 502.259 381.246 502.259C382.199 502.259 382.869 502.586 383.256 503.239C383.649 503.886 383.846 504.786 383.846 505.939C383.846 507.106 383.649 508.019 383.256 508.679C382.869 509.332 382.199 509.659 381.246 509.659C380.293 509.659 379.619 509.332 379.226 508.679C378.839 508.019 378.646 507.106 378.646 505.939ZM382.726 505.939C382.726 505.399 382.689 504.942 382.616 504.569C382.549 504.196 382.409 503.892 382.196 503.659C381.983 503.419 381.666 503.299 381.246 503.299C380.826 503.299 380.509 503.419 380.296 503.659C380.083 503.892 379.939 504.196 379.866 504.569C379.799 504.942 379.766 505.399 379.766 505.939C379.766 506.499 379.799 506.969 379.866 507.349C379.933 507.729 380.073 508.036 380.286 508.269C380.506 508.502 380.826 508.619 381.246 508.619C381.666 508.619 381.983 508.502 382.196 508.269C382.416 508.036 382.559 507.729 382.626 507.349C382.693 506.969 382.726 506.499 382.726 505.939Z" fill="#01070D"/>
</g>
<path d="M211.154 365.64C210.974 365.293 210.724 365.033 210.404 364.86C210.084 364.68 209.714 364.59 209.294 364.59C208.834 364.59 208.424 364.693 208.064 364.9C207.704 365.106 207.421 365.4 207.214 365.78C207.014 366.16 206.914 366.6 206.914 367.1C206.914 367.6 207.014 368.043 207.214 368.43C207.421 368.81 207.704 369.103 208.064 369.31C208.424 369.516 208.834 369.62 209.294 369.62C209.914 369.62 210.417 369.446 210.804 369.1C211.191 368.753 211.427 368.283 211.514 367.69H208.904V366.78H212.734V367.67C212.661 368.21 212.467 368.706 212.154 369.16C211.847 369.613 211.444 369.976 210.944 370.25C210.451 370.516 209.901 370.65 209.294 370.65C208.641 370.65 208.044 370.5 207.504 370.2C206.964 369.893 206.534 369.47 206.214 368.93C205.901 368.39 205.744 367.78 205.744 367.1C205.744 366.42 205.901 365.81 206.214 365.27C206.534 364.73 206.964 364.31 207.504 364.01C208.051 363.703 208.647 363.55 209.294 363.55C210.034 363.55 210.691 363.733 211.264 364.1C211.844 364.46 212.264 364.973 212.524 365.64H211.154ZM214.998 365.88C215.165 365.6 215.385 365.383 215.658 365.23C215.938 365.07 216.268 364.99 216.648 364.99V366.17H216.358C215.912 366.17 215.572 366.283 215.338 366.51C215.112 366.736 214.998 367.13 214.998 367.69V370.59H213.858V365.08H214.998V365.88ZM220.086 370.68C219.566 370.68 219.096 370.563 218.676 370.33C218.256 370.09 217.926 369.756 217.686 369.33C217.446 368.896 217.326 368.396 217.326 367.83C217.326 367.27 217.45 366.773 217.696 366.34C217.943 365.906 218.28 365.573 218.706 365.34C219.133 365.106 219.61 364.99 220.136 364.99C220.663 364.99 221.14 365.106 221.566 365.34C221.993 365.573 222.33 365.906 222.576 366.34C222.823 366.773 222.946 367.27 222.946 367.83C222.946 368.39 222.82 368.886 222.566 369.32C222.313 369.753 221.966 370.09 221.526 370.33C221.093 370.563 220.613 370.68 220.086 370.68ZM220.086 369.69C220.38 369.69 220.653 369.62 220.906 369.48C221.166 369.34 221.376 369.13 221.536 368.85C221.696 368.57 221.776 368.23 221.776 367.83C221.776 367.43 221.7 367.093 221.546 366.82C221.393 366.54 221.19 366.33 220.936 366.19C220.683 366.05 220.41 365.98 220.116 365.98C219.823 365.98 219.55 366.05 219.296 366.19C219.05 366.33 218.853 366.54 218.706 366.82C218.56 367.093 218.486 367.43 218.486 367.83C218.486 368.423 218.636 368.883 218.936 369.21C219.243 369.53 219.626 369.69 220.086 369.69ZM231.473 365.08L229.763 370.59H228.563L227.453 366.52L226.343 370.59H225.143L223.423 365.08H224.583L225.733 369.51L226.903 365.08H228.093L229.213 369.49L230.353 365.08H231.473ZM233.655 366.01V369.06C233.655 369.266 233.702 369.416 233.795 369.51C233.895 369.596 234.062 369.64 234.295 369.64H234.995V370.59H234.095C233.582 370.59 233.188 370.47 232.915 370.23C232.642 369.99 232.505 369.6 232.505 369.06V366.01H231.855V365.08H232.505V363.71H233.655V365.08H234.995V366.01H233.655ZM238.896 364.99C239.316 364.99 239.689 365.08 240.016 365.26C240.349 365.44 240.609 365.706 240.796 366.06C240.989 366.413 241.086 366.84 241.086 367.34V370.59H239.956V367.51C239.956 367.016 239.833 366.64 239.586 366.38C239.339 366.113 239.003 365.98 238.576 365.98C238.149 365.98 237.809 366.113 237.556 366.38C237.309 366.64 237.186 367.016 237.186 367.51V370.59H236.046V363.19H237.186V365.72C237.379 365.486 237.623 365.306 237.916 365.18C238.216 365.053 238.543 364.99 238.896 364.99Z" fill="#01070D"/>
<defs>
<linearGradient id="paint0_linear_0_268" x1="268.942" y1="314.581" x2="295.293" y2="460.734" gradientUnits="userSpaceOnUse">
<stop stop-color="#FE7382"/>
<stop offset="1" stop-color="#FE7382" stop-opacity="0"/>
</linearGradient>
</defs>
</svg>
