<svg width="90" height="89" viewBox="0 0 90 89" fill="none" xmlns="http://www.w3.org/2000/svg">
<path opacity="0.05" d="M47.9996 2.0986L87.2348 46.6136L42.7198 85.8488L3.4846 41.3338L47.9996 2.0986Z" fill="#1D92FF"/>
<path opacity="0.3" d="M47.6193 1.16935L87.9814 46.9629L42.1879 87.3251L1.82573 41.5315L47.6193 1.16935Z" stroke="#002547" stroke-width="0.3"/>
<circle opacity="0.3" cx="47.5" cy="1.54932" r="1.5" fill="#002547"/>
<circle opacity="0.3" cx="42.2998" cy="87.2493" r="1" fill="#002547"/>
<circle opacity="0.3" cx="1.5" cy="41.5493" r="1.5" fill="#002547"/>
<circle opacity="0.3" cx="88.5" cy="46.5493" r="1.5" fill="#002547"/>
<path d="M60 38.7653C60 40.232 58.7727 41.432 57.2727 41.432C57.0273 41.432 56.7955 41.4053 56.5773 41.3386L51.7227 46.072C51.7909 46.2853 51.8182 46.5253 51.8182 46.7653C51.8182 48.232 50.5909 49.432 49.0909 49.432C47.5909 49.432 46.3636 48.232 46.3636 46.7653C46.3636 46.5253 46.3909 46.2853 46.4591 46.072L42.9818 42.672C42.7636 42.7386 42.5182 42.7653 42.2727 42.7653C42.0273 42.7653 41.7818 42.7386 41.5636 42.672L35.3591 48.752C35.4273 48.9653 35.4545 49.192 35.4545 49.432C35.4545 50.8986 34.2273 52.0986 32.7273 52.0986C31.2273 52.0986 30 50.8986 30 49.432C30 47.9653 31.2273 46.7653 32.7273 46.7653C32.9727 46.7653 33.2045 46.792 33.4227 46.8586L39.6409 40.792C39.5727 40.5786 39.5455 40.3386 39.5455 40.0986C39.5455 38.632 40.7727 37.432 42.2727 37.432C43.7727 37.432 45 38.632 45 40.0986C45 40.3386 44.9727 40.5786 44.9045 40.792L48.3818 44.192C48.6 44.1253 48.8455 44.0986 49.0909 44.0986C49.3364 44.0986 49.5818 44.1253 49.8 44.192L54.6409 39.4453C54.5727 39.232 54.5455 39.0053 54.5455 38.7653C54.5455 37.2986 55.7727 36.0986 57.2727 36.0986C58.7727 36.0986 60 37.2986 60 38.7653Z" fill="#002547"/>
</svg>
