<svg width="90" height="89" viewBox="0 0 90 89" fill="none" xmlns="http://www.w3.org/2000/svg">
<path opacity="0.05" d="M47.9996 2.09863L87.2348 46.6136L42.7198 85.8489L3.48459 41.3338L47.9996 2.09863Z" fill="#1D92FF"/>
<path opacity="0.3" d="M47.6193 1.16935L87.9814 46.9629L42.1878 87.3251L1.82571 41.5315L47.6193 1.16935Z" stroke="#002547" stroke-width="0.3"/>
<circle opacity="0.3" cx="47.5" cy="1.54932" r="1.5" fill="#002547"/>
<circle opacity="0.3" cx="42.2998" cy="87.2493" r="1" fill="#002547"/>
<circle opacity="0.3" cx="1.5" cy="41.5493" r="1.5" fill="#002547"/>
<circle opacity="0.3" cx="88.5" cy="46.5493" r="1.5" fill="#002547"/>
<path d="M57.5837 37.4603L55.8799 35.7566L52.4362 39.6353C49.947 36.832 46.5032 35.1403 42.6124 35.1403C39.1203 35.1403 35.9182 36.542 33.417 38.7653L35.1328 40.4812C37.187 38.6807 39.7849 37.557 42.6124 37.557C45.9232 37.557 48.7628 39.0795 50.7928 41.472L47.3128 45.387L42.4795 40.5537L33.417 49.6282L35.2295 51.4407L42.4795 44.1787L47.3128 49.012L52.2066 43.5141C53.1128 45.1453 53.717 47.0182 53.9466 49.012H56.3753C56.1095 46.2328 55.2274 43.7074 53.9103 41.5928L57.5837 37.4603Z" fill="#002547"/>
</svg>
