<svg width="90" height="89" viewBox="0 0 90 89" fill="none" xmlns="http://www.w3.org/2000/svg">
<path opacity="0.05" d="M47.9996 2.09863L87.2348 46.6136L42.7198 85.8489L3.48459 41.3338L47.9996 2.09863Z" fill="#1D92FF"/>
<path opacity="0.3" d="M47.6193 1.16935L87.9814 46.9629L42.1878 87.3251L1.82571 41.5315L47.6193 1.16935Z" stroke="#002547" stroke-width="0.3"/>
<circle opacity="0.3" cx="47.5" cy="1.54932" r="1.5" fill="#002547"/>
<circle opacity="0.3" cx="42.2998" cy="87.2493" r="1" fill="#002547"/>
<circle opacity="0.3" cx="1.5" cy="41.5493" r="1.5" fill="#002547"/>
<circle opacity="0.3" cx="88.5" cy="46.5493" r="1.5" fill="#002547"/>
<path d="M44.5 36.7236C40.1462 36.7236 36.625 40.2449 36.625 44.5986H38.875C38.875 41.4936 41.395 38.9736 44.5 38.9736C47.605 38.9736 50.125 41.4936 50.125 44.5986H52.375C52.375 40.2449 48.8538 36.7236 44.5 36.7236ZM45.625 47.1749C46.615 46.7361 47.3125 45.7574 47.3125 44.5986C47.3125 43.0461 46.0525 41.7861 44.5 41.7861C42.9475 41.7861 41.6875 43.0461 41.6875 44.5986C41.6875 45.7461 42.385 46.7361 43.375 47.1749V50.8874L39.5388 54.7236L41.125 56.3099L44.5 52.9349L47.875 56.3099L49.4613 54.7236L45.625 50.8874V47.1749ZM44.5 32.2236C37.6712 32.2236 32.125 37.7699 32.125 44.5986H34.375C34.375 39.0074 38.9088 34.4736 44.5 34.4736C50.0912 34.4736 54.625 39.0074 54.625 44.5986H56.875C56.875 37.7699 51.3288 32.2236 44.5 32.2236Z" fill="#002547"/>
</svg>
