<svg width="90" height="89" viewBox="0 0 90 89" fill="none" xmlns="http://www.w3.org/2000/svg">
<path opacity="0.05" d="M47.9996 2.09863L87.2348 46.6136L42.7198 85.8489L3.4846 41.3338L47.9996 2.09863Z" fill="#1D92FF"/>
<path opacity="0.3" d="M47.6193 1.16935L87.9814 46.9629L42.1879 87.3251L1.82573 41.5315L47.6193 1.16935Z" stroke="#002547" stroke-width="0.3"/>
<circle opacity="0.3" cx="47.5" cy="1.54932" r="1.5" fill="#002547"/>
<circle opacity="0.3" cx="42.2998" cy="87.2493" r="1" fill="#002547"/>
<circle opacity="0.3" cx="1.5" cy="41.5493" r="1.5" fill="#002547"/>
<circle opacity="0.3" cx="88.5" cy="46.5493" r="1.5" fill="#002547"/>
<path d="M45.4997 38.7653C42.8293 38.7653 40.6663 40.9282 40.6663 43.5986C40.6663 46.269 42.8293 48.4319 45.4997 48.4319C48.1701 48.4319 50.333 46.269 50.333 43.5986C50.333 40.9282 48.1701 38.7653 45.4997 38.7653ZM56.3022 42.3903C55.7463 37.3515 51.7468 33.3519 46.708 32.7961V30.3069H44.2913V32.7961C39.2526 33.3519 35.253 37.3515 34.6972 42.3903H32.208V44.8069H34.6972C35.253 49.8457 39.2526 53.8453 44.2913 54.4011V56.8903H46.708V54.4011C51.7468 53.8453 55.7463 49.8457 56.3022 44.8069H58.7913V42.3903H56.3022ZM45.4997 52.0569C40.8234 52.0569 37.0413 48.2749 37.0413 43.5986C37.0413 38.9224 40.8234 35.1403 45.4997 35.1403C50.1759 35.1403 53.958 38.9224 53.958 43.5986C53.958 48.2749 50.1759 52.0569 45.4997 52.0569Z" fill="#002547"/>
</svg>
