<svg width="90" height="89" viewBox="0 0 90 89" fill="none" xmlns="http://www.w3.org/2000/svg">
<path opacity="0.05" d="M47.9996 2.0986L87.2348 46.6136L42.7198 85.8488L3.48459 41.3338L47.9996 2.0986Z" fill="#1D92FF"/>
<path opacity="0.3" d="M47.6193 1.16935L87.9814 46.9629L42.1878 87.3251L1.82571 41.5315L47.6193 1.16935Z" stroke="#002547" stroke-width="0.3"/>
<circle opacity="0.3" cx="47.5" cy="1.54932" r="1.5" fill="#002547"/>
<circle opacity="0.3" cx="42.2998" cy="87.2493" r="1" fill="#002547"/>
<circle opacity="0.3" cx="1.5" cy="41.5493" r="1.5" fill="#002547"/>
<circle opacity="0.3" cx="88.5" cy="46.5493" r="1.5" fill="#002547"/>
<path d="M57.9965 54.4585H43.9806V56.7945H57.9965V54.4585ZM53.0384 39.3563L49.733 36.0544L33.2175 52.5722L36.5206 55.8752L53.0384 39.3563ZM44.7783 31.0986L38.171 37.7048L41.4764 41.0102L48.0802 34.3994L44.7783 31.0986ZM54.6969 41.009L48.0896 47.6164L51.3927 50.9195L58 44.3121L54.6969 41.009Z" fill="#002547"/>
</svg>
