<svg width="90" height="89" viewBox="0 0 90 89" fill="none" xmlns="http://www.w3.org/2000/svg">
<path opacity="0.05" d="M47.9996 2.0986L87.2348 46.6136L42.7198 85.8488L3.48459 41.3338L47.9996 2.0986Z" fill="#1D92FF"/>
<path opacity="0.3" d="M47.6193 1.16935L87.9814 46.9629L42.1878 87.3251L1.82571 41.5315L47.6193 1.16935Z" stroke="#002547" stroke-width="0.3"/>
<circle opacity="0.3" cx="47.5" cy="1.54932" r="1.5" fill="#002547"/>
<circle opacity="0.3" cx="42.2998" cy="87.2493" r="1" fill="#002547"/>
<circle opacity="0.3" cx="1.5" cy="41.5493" r="1.5" fill="#002547"/>
<circle opacity="0.3" cx="88.5" cy="46.5493" r="1.5" fill="#002547"/>
<path d="M57.7891 40.1791C57.7891 35.5028 54.007 31.7208 49.3307 31.7208C44.6545 31.7208 40.8724 35.5028 40.8724 40.1791C40.8724 44.372 43.9174 47.8399 47.917 48.5045V53.2653H38.2503V49.6403H39.4587V44.807C39.4587 44.1424 38.9149 43.5987 38.2503 43.5987H34.6253C33.9607 43.5987 33.417 44.1424 33.417 44.807V49.6403H34.6253V55.682H53.9587V53.2653H50.3337V48.577C54.5266 48.0816 57.7891 44.517 57.7891 40.1791ZM36.4378 42.3903C37.4407 42.3903 38.2503 41.5808 38.2503 40.5778C38.2503 39.5749 37.4407 38.7653 36.4378 38.7653C35.4349 38.7653 34.6253 39.5749 34.6253 40.5778C34.6253 41.5808 35.4349 42.3903 36.4378 42.3903Z" fill="#002547"/>
</svg>
