<svg width="30" height="31" viewBox="0 0 30 31" fill="none" xmlns="http://www.w3.org/2000/svg">
<path d="M30 15.7905C30 24.0748 23.2843 30.7905 15 30.7905C6.71573 30.7905 0 24.0748 0 15.7905C0 7.50626 6.71573 0.790527 15 0.790527C23.2843 0.790527 30 7.50626 30 15.7905Z" fill="#050C12"/>
<path d="M13.5135 11.5016V13.4291H12V15.786H13.5135V22.7905H16.6201V15.7867H18.7054C18.7054 15.7867 18.9008 14.6567 18.9955 13.4207H16.6328V11.8088C16.6328 11.5682 16.971 11.2442 17.3062 11.2442H19V8.79053H16.6975C13.4361 8.79053 13.5135 11.1495 13.5135 11.5016V11.5016Z" fill="white"/>
</svg>
