<svg width="30" height="31" viewBox="0 0 30 31" fill="none" xmlns="http://www.w3.org/2000/svg">
<path d="M30 15.7905C30 24.0748 23.2843 30.7905 15 30.7905C6.71573 30.7905 0 24.0748 0 15.7905C0 7.50626 6.71573 0.790527 15 0.790527C23.2843 0.790527 30 7.50626 30 15.7905Z" fill="#050C12"/>
<path d="M17.579 13.8958C18.6677 13.8958 19.7119 14.3283 20.4818 15.0982C21.2517 15.868 21.6842 16.9122 21.6842 18.001V22.7905H18.9474V18.001C18.9474 17.6381 18.8032 17.29 18.5466 17.0334C18.2899 16.7768 17.9419 16.6326 17.579 16.6326C17.216 16.6326 16.868 16.7768 16.6113 17.0334C16.3547 17.29 16.2105 17.6381 16.2105 18.001V22.7905H13.4737V18.001C13.4737 16.9122 13.9062 15.868 14.6761 15.0982C15.446 14.3283 16.4902 13.8958 17.579 13.8958V13.8958Z" fill="white"/>
<path d="M10.7368 14.5801H8V22.7906H10.7368V14.5801Z" fill="white"/>
<path d="M9.36842 12.5274C10.1242 12.5274 10.7368 11.9147 10.7368 11.1589C10.7368 10.4032 10.1242 9.79053 9.36842 9.79053C8.61266 9.79053 8 10.4032 8 11.1589C8 11.9147 8.61266 12.5274 9.36842 12.5274Z" fill="white"/>
</svg>
