<svg width="222" height="36" viewBox="0 0 222 36" fill="none" xmlns="http://www.w3.org/2000/svg">
<rect width="222" height="36" rx="18" fill="#FAFAFA"/>
<rect x="0.25" y="0.25" width="221.5" height="35.5" rx="17.75" stroke="#01070D" stroke-opacity="0.05" stroke-width="0.5"/>
<rect x="111" y="1.04932" width="110" height="34" rx="17" fill="white"/>
<path d="M40.192 14.004V23H39.009V16.292L36.019 23H35.187L32.184 16.279V23H31.001V14.004H32.275L35.603 21.44L38.931 14.004H40.192ZM45.3053 23.117C44.6379 23.117 44.0313 22.9653 43.4853 22.662C42.9479 22.3587 42.5233 21.9297 42.2113 21.375C41.9079 20.8117 41.7563 20.1617 41.7563 19.425C41.7563 18.697 41.9123 18.0557 42.2243 17.501C42.5449 16.9377 42.9783 16.5087 43.5243 16.214C44.0703 15.9107 44.6813 15.759 45.3573 15.759C46.0333 15.759 46.6443 15.9107 47.1903 16.214C47.7363 16.5087 48.1653 16.9333 48.4773 17.488C48.7979 18.0427 48.9583 18.6883 48.9583 19.425C48.9583 20.1617 48.7936 20.8117 48.4643 21.375C48.1436 21.9297 47.7059 22.3587 47.1513 22.662C46.5966 22.9653 45.9813 23.117 45.3053 23.117ZM45.3053 22.077C45.7299 22.077 46.1286 21.9773 46.5013 21.778C46.8739 21.5787 47.1729 21.2797 47.3983 20.881C47.6323 20.4823 47.7493 19.997 47.7493 19.425C47.7493 18.853 47.6366 18.3677 47.4113 17.969C47.1859 17.5703 46.8913 17.2757 46.5273 17.085C46.1633 16.8857 45.7689 16.786 45.3443 16.786C44.9109 16.786 44.5123 16.8857 44.1483 17.085C43.7929 17.2757 43.5069 17.5703 43.2903 17.969C43.0736 18.3677 42.9653 18.853 42.9653 19.425C42.9653 20.0057 43.0693 20.4953 43.2773 20.894C43.4939 21.2927 43.7799 21.5917 44.1353 21.791C44.4906 21.9817 44.8806 22.077 45.3053 22.077ZM53.9847 15.746C54.8514 15.746 55.5534 16.0103 56.0907 16.539C56.628 17.059 56.8967 17.813 56.8967 18.801V23H55.7267V18.97C55.7267 18.2593 55.549 17.7177 55.1937 17.345C54.8384 16.9637 54.353 16.773 53.7377 16.773C53.1137 16.773 52.6154 16.968 52.2427 17.358C51.8787 17.748 51.6967 18.3157 51.6967 19.061V23H50.5137V15.876H51.6967V16.89C51.9307 16.526 52.247 16.2443 52.6457 16.045C53.053 15.8457 53.4994 15.746 53.9847 15.746ZM60.2721 16.851V21.05C60.2721 21.3967 60.3458 21.6437 60.4931 21.791C60.6405 21.9297 60.8961 21.999 61.2601 21.999H62.1311V23H61.0651C60.4065 23 59.9125 22.8483 59.5831 22.545C59.2538 22.2417 59.0891 21.7433 59.0891 21.05V16.851H58.1661V15.876H59.0891V14.082H60.2721V15.876H62.1311V16.851H60.2721ZM67.1005 15.746C67.6378 15.746 68.1231 15.863 68.5565 16.097C68.9898 16.3223 69.3278 16.6647 69.5705 17.124C69.8218 17.5833 69.9475 18.1423 69.9475 18.801V23H68.7775V18.97C68.7775 18.2593 68.5998 17.7177 68.2445 17.345C67.8891 16.9637 67.4038 16.773 66.7885 16.773C66.1645 16.773 65.6661 16.968 65.2935 17.358C64.9295 17.748 64.7475 18.3157 64.7475 19.061V23H63.5645V13.38H64.7475V16.89C64.9815 16.526 65.3021 16.2443 65.7095 16.045C66.1255 15.8457 66.5891 15.746 67.1005 15.746ZM72.4909 14.719C72.2656 14.719 72.0749 14.641 71.9189 14.485C71.7629 14.329 71.6849 14.1383 71.6849 13.913C71.6849 13.6877 71.7629 13.497 71.9189 13.341C72.0749 13.185 72.2656 13.107 72.4909 13.107C72.7076 13.107 72.8896 13.185 73.0369 13.341C73.1929 13.497 73.2709 13.6877 73.2709 13.913C73.2709 14.1383 73.1929 14.329 73.0369 14.485C72.8896 14.641 72.7076 14.719 72.4909 14.719ZM73.0629 15.876V23H71.8799V15.876H73.0629ZM81.2151 15.876L76.9251 26.354H75.7031L77.1071 22.922L74.2341 15.876H75.5471L77.7831 21.648L79.9931 15.876H81.2151Z" fill="#01070D" fill-opacity="0.4"/>
<path d="M141.357 20.985H137.405L136.677 23H135.429L138.705 13.991H140.07L143.333 23H142.085L141.357 20.985ZM141.019 20.023L139.381 15.447L137.743 20.023H141.019ZM148.232 15.746C149.098 15.746 149.8 16.0103 150.338 16.539C150.875 17.059 151.144 17.813 151.144 18.801V23H149.974V18.97C149.974 18.2593 149.796 17.7177 149.441 17.345C149.085 16.9637 148.6 16.773 147.985 16.773C147.361 16.773 146.862 16.968 146.49 17.358C146.126 17.748 145.944 18.3157 145.944 19.061V23H144.761V15.876H145.944V16.89C146.178 16.526 146.494 16.2443 146.893 16.045C147.3 15.8457 147.746 15.746 148.232 15.746ZM156.547 15.746C157.414 15.746 158.116 16.0103 158.653 16.539C159.191 17.059 159.459 17.813 159.459 18.801V23H158.289V18.97C158.289 18.2593 158.112 17.7177 157.756 17.345C157.401 16.9637 156.916 16.773 156.3 16.773C155.676 16.773 155.178 16.968 154.805 17.358C154.441 17.748 154.259 18.3157 154.259 19.061V23H153.076V15.876H154.259V16.89C154.493 16.526 154.81 16.2443 155.208 16.045C155.616 15.8457 156.062 15.746 156.547 15.746ZM167.71 15.876V23H166.527V21.947C166.301 22.311 165.985 22.597 165.578 22.805C165.179 23.0043 164.737 23.104 164.252 23.104C163.697 23.104 163.199 22.9913 162.757 22.766C162.315 22.532 161.964 22.1853 161.704 21.726C161.452 21.2667 161.327 20.7077 161.327 20.049V15.876H162.497V19.893C162.497 20.595 162.674 21.1367 163.03 21.518C163.385 21.8907 163.87 22.077 164.486 22.077C165.118 22.077 165.617 21.882 165.981 21.492C166.345 21.102 166.527 20.5343 166.527 19.789V15.876H167.71ZM169.265 19.412C169.265 18.684 169.412 18.047 169.707 17.501C170.002 16.9463 170.405 16.5173 170.916 16.214C171.436 15.9107 172.012 15.759 172.645 15.759C173.269 15.759 173.811 15.8933 174.27 16.162C174.729 16.4307 175.072 16.7687 175.297 17.176V15.876H176.493V23H175.297V21.674C175.063 22.09 174.712 22.4367 174.244 22.714C173.785 22.9827 173.247 23.117 172.632 23.117C171.999 23.117 171.427 22.961 170.916 22.649C170.405 22.337 170.002 21.8993 169.707 21.336C169.412 20.7727 169.265 20.1313 169.265 19.412ZM175.297 19.425C175.297 18.8877 175.189 18.4197 174.972 18.021C174.755 17.6223 174.461 17.319 174.088 17.111C173.724 16.8943 173.321 16.786 172.879 16.786C172.437 16.786 172.034 16.89 171.67 17.098C171.306 17.306 171.016 17.6093 170.799 18.008C170.582 18.4067 170.474 18.8747 170.474 19.412C170.474 19.958 170.582 20.4347 170.799 20.842C171.016 21.2407 171.306 21.5483 171.67 21.765C172.034 21.973 172.437 22.077 172.879 22.077C173.321 22.077 173.724 21.973 174.088 21.765C174.461 21.5483 174.755 21.2407 174.972 20.842C175.189 20.4347 175.297 19.9623 175.297 19.425ZM179.675 13.38V23H178.492V13.38H179.675ZM182.874 13.38V23H181.691V13.38H182.874ZM191.027 15.876L186.737 26.354H185.515L186.919 22.922L184.046 15.876H185.359L187.595 21.648L189.805 15.876H191.027Z" fill="#01070D"/>
</svg>
