<svg width="222" height="37" viewBox="0 0 222 37" fill="none" xmlns="http://www.w3.org/2000/svg">
<rect y="0.0493164" width="222" height="36" rx="18" fill="white" fill-opacity="0.1"/>
<rect x="0.5" y="0.549316" width="221" height="35" rx="17.5" stroke="white" stroke-opacity="0.3"/>
<rect x="111" y="1.04932" width="110" height="34" rx="17" fill="#1D92FF"/>
<rect x="110.5" y="0.549316" width="111" height="35" rx="17.5" stroke="white" stroke-opacity="0.5"/>
<path d="M40.192 14.0533V23.0493H39.009V16.3413L36.019 23.0493H35.187L32.184 16.3283V23.0493H31.001V14.0533H32.275L35.603 21.4893L38.931 14.0533H40.192ZM45.3053 23.1663C44.6379 23.1663 44.0313 23.0146 43.4853 22.7113C42.9479 22.408 42.5233 21.979 42.2113 21.4243C41.9079 20.861 41.7563 20.211 41.7563 19.4743C41.7563 18.7463 41.9123 18.105 42.2243 17.5503C42.5449 16.987 42.9783 16.558 43.5243 16.2633C44.0703 15.96 44.6813 15.8083 45.3573 15.8083C46.0333 15.8083 46.6443 15.96 47.1903 16.2633C47.7363 16.558 48.1653 16.9826 48.4773 17.5373C48.7979 18.092 48.9583 18.7376 48.9583 19.4743C48.9583 20.211 48.7936 20.861 48.4643 21.4243C48.1436 21.979 47.7059 22.408 47.1513 22.7113C46.5966 23.0146 45.9813 23.1663 45.3053 23.1663ZM45.3053 22.1263C45.7299 22.1263 46.1286 22.0266 46.5013 21.8273C46.8739 21.628 47.1729 21.329 47.3983 20.9303C47.6323 20.5316 47.7493 20.0463 47.7493 19.4743C47.7493 18.9023 47.6366 18.417 47.4113 18.0183C47.1859 17.6196 46.8913 17.325 46.5273 17.1343C46.1633 16.935 45.7689 16.8353 45.3443 16.8353C44.9109 16.8353 44.5123 16.935 44.1483 17.1343C43.7929 17.325 43.5069 17.6196 43.2903 18.0183C43.0736 18.417 42.9653 18.9023 42.9653 19.4743C42.9653 20.055 43.0693 20.5446 43.2773 20.9433C43.4939 21.342 43.7799 21.641 44.1353 21.8403C44.4906 22.031 44.8806 22.1263 45.3053 22.1263ZM53.9847 15.7953C54.8514 15.7953 55.5534 16.0596 56.0907 16.5883C56.628 17.1083 56.8967 17.8623 56.8967 18.8503V23.0493H55.7267V19.0193C55.7267 18.3086 55.549 17.767 55.1937 17.3943C54.8384 17.013 54.353 16.8223 53.7377 16.8223C53.1137 16.8223 52.6154 17.0173 52.2427 17.4073C51.8787 17.7973 51.6967 18.365 51.6967 19.1103V23.0493H50.5137V15.9253H51.6967V16.9393C51.9307 16.5753 52.247 16.2936 52.6457 16.0943C53.053 15.895 53.4994 15.7953 53.9847 15.7953ZM60.2721 16.9003V21.0993C60.2721 21.446 60.3458 21.693 60.4931 21.8403C60.6405 21.979 60.8961 22.0483 61.2601 22.0483H62.1311V23.0493H61.0651C60.4065 23.0493 59.9125 22.8976 59.5831 22.5943C59.2538 22.291 59.0891 21.7926 59.0891 21.0993V16.9003H58.1661V15.9253H59.0891V14.1313H60.2721V15.9253H62.1311V16.9003H60.2721ZM67.1005 15.7953C67.6378 15.7953 68.1231 15.9123 68.5565 16.1463C68.9898 16.3716 69.3278 16.714 69.5705 17.1733C69.8218 17.6326 69.9475 18.1916 69.9475 18.8503V23.0493H68.7775V19.0193C68.7775 18.3086 68.5998 17.767 68.2445 17.3943C67.8891 17.013 67.4038 16.8223 66.7885 16.8223C66.1645 16.8223 65.6661 17.0173 65.2935 17.4073C64.9295 17.7973 64.7475 18.365 64.7475 19.1103V23.0493H63.5645V13.4293H64.7475V16.9393C64.9815 16.5753 65.3021 16.2936 65.7095 16.0943C66.1255 15.895 66.5891 15.7953 67.1005 15.7953ZM72.4909 14.7683C72.2656 14.7683 72.0749 14.6903 71.9189 14.5343C71.7629 14.3783 71.6849 14.1876 71.6849 13.9623C71.6849 13.737 71.7629 13.5463 71.9189 13.3903C72.0749 13.2343 72.2656 13.1563 72.4909 13.1563C72.7076 13.1563 72.8896 13.2343 73.0369 13.3903C73.1929 13.5463 73.2709 13.737 73.2709 13.9623C73.2709 14.1876 73.1929 14.3783 73.0369 14.5343C72.8896 14.6903 72.7076 14.7683 72.4909 14.7683ZM73.0629 15.9253V23.0493H71.8799V15.9253H73.0629ZM81.2151 15.9253L76.9251 26.4033H75.7031L77.1071 22.9713L74.2341 15.9253H75.5471L77.7831 21.6973L79.9931 15.9253H81.2151Z" fill="white" fill-opacity="0.4"/>
<path d="M141.357 21.0343H137.405L136.677 23.0493H135.429L138.705 14.0403H140.07L143.333 23.0493H142.085L141.357 21.0343ZM141.019 20.0723L139.381 15.4963L137.743 20.0723H141.019ZM148.232 15.7953C149.098 15.7953 149.8 16.0596 150.338 16.5883C150.875 17.1083 151.144 17.8623 151.144 18.8503V23.0493H149.974V19.0193C149.974 18.3086 149.796 17.767 149.441 17.3943C149.085 17.013 148.6 16.8223 147.985 16.8223C147.361 16.8223 146.862 17.0173 146.49 17.4073C146.126 17.7973 145.944 18.365 145.944 19.1103V23.0493H144.761V15.9253H145.944V16.9393C146.178 16.5753 146.494 16.2936 146.893 16.0943C147.3 15.895 147.746 15.7953 148.232 15.7953ZM156.547 15.7953C157.414 15.7953 158.116 16.0596 158.653 16.5883C159.191 17.1083 159.459 17.8623 159.459 18.8503V23.0493H158.289V19.0193C158.289 18.3086 158.112 17.767 157.756 17.3943C157.401 17.013 156.916 16.8223 156.3 16.8223C155.676 16.8223 155.178 17.0173 154.805 17.4073C154.441 17.7973 154.259 18.365 154.259 19.1103V23.0493H153.076V15.9253H154.259V16.9393C154.493 16.5753 154.81 16.2936 155.208 16.0943C155.616 15.895 156.062 15.7953 156.547 15.7953ZM167.71 15.9253V23.0493H166.527V21.9963C166.301 22.3603 165.985 22.6463 165.578 22.8543C165.179 23.0536 164.737 23.1533 164.252 23.1533C163.697 23.1533 163.199 23.0406 162.757 22.8153C162.315 22.5813 161.964 22.2346 161.704 21.7753C161.452 21.316 161.327 20.757 161.327 20.0983V15.9253H162.497V19.9423C162.497 20.6443 162.674 21.186 163.03 21.5673C163.385 21.94 163.87 22.1263 164.486 22.1263C165.118 22.1263 165.617 21.9313 165.981 21.5413C166.345 21.1513 166.527 20.5836 166.527 19.8383V15.9253H167.71ZM169.265 19.4613C169.265 18.7333 169.412 18.0963 169.707 17.5503C170.002 16.9956 170.405 16.5666 170.916 16.2633C171.436 15.96 172.012 15.8083 172.645 15.8083C173.269 15.8083 173.811 15.9426 174.27 16.2113C174.729 16.48 175.072 16.818 175.297 17.2253V15.9253H176.493V23.0493H175.297V21.7233C175.063 22.1393 174.712 22.486 174.244 22.7633C173.785 23.032 173.247 23.1663 172.632 23.1663C171.999 23.1663 171.427 23.0103 170.916 22.6983C170.405 22.3863 170.002 21.9486 169.707 21.3853C169.412 20.822 169.265 20.1806 169.265 19.4613ZM175.297 19.4743C175.297 18.937 175.189 18.469 174.972 18.0703C174.755 17.6716 174.461 17.3683 174.088 17.1603C173.724 16.9436 173.321 16.8353 172.879 16.8353C172.437 16.8353 172.034 16.9393 171.67 17.1473C171.306 17.3553 171.016 17.6586 170.799 18.0573C170.582 18.456 170.474 18.924 170.474 19.4613C170.474 20.0073 170.582 20.484 170.799 20.8913C171.016 21.29 171.306 21.5976 171.67 21.8143C172.034 22.0223 172.437 22.1263 172.879 22.1263C173.321 22.1263 173.724 22.0223 174.088 21.8143C174.461 21.5976 174.755 21.29 174.972 20.8913C175.189 20.484 175.297 20.0116 175.297 19.4743ZM179.675 13.4293V23.0493H178.492V13.4293H179.675ZM182.874 13.4293V23.0493H181.691V13.4293H182.874ZM191.027 15.9253L186.737 26.4033H185.515L186.919 22.9713L184.046 15.9253H185.359L187.595 21.6973L189.805 15.9253H191.027Z" fill="white"/>
</svg>
