<svg width="30" height="31" viewBox="0 0 30 31" fill="none" xmlns="http://www.w3.org/2000/svg">
<path d="M30 15.7905C30 24.0748 23.2843 30.7905 15 30.7905C6.71573 30.7905 0 24.0748 0 15.7905C0 7.50626 6.71573 0.790527 15 0.790527C23.2843 0.790527 30 7.50626 30 15.7905Z" fill="#050C12"/>
<path d="M22 9.79725C21.3906 10.249 20.7159 10.5945 20.0018 10.8205C19.6186 10.3573 19.1092 10.0291 18.5427 9.88013C17.9761 9.73115 17.3797 9.76863 16.8341 9.98748C16.2884 10.2063 15.8199 10.596 15.4919 11.1038C15.1639 11.6116 14.9922 12.213 15 12.8267V13.4955C13.8817 13.526 12.7735 13.2653 11.7743 12.7367C10.775 12.2082 9.91566 11.4281 9.27273 10.466C9.27273 10.466 6.72727 16.4848 12.4545 19.1599C11.144 20.0948 9.58274 20.5636 8 20.4974C13.7273 23.8412 20.7273 20.4974 20.7273 12.8067C20.7267 12.6204 20.7096 12.4346 20.6764 12.2516C21.3258 11.5785 21.7842 10.7286 22 9.79725V9.79725Z" fill="white"/>
</svg>
