<svg width="832" height="832" viewBox="0 0 832 832" fill="none" xmlns="http://www.w3.org/2000/svg">
<g clip-path="url(#clip0_18_2)">
<path fill-rule="evenodd" clip-rule="evenodd" d="M657.466 19.5539C703.835 4.32952 790.147 -24.0073 821.683 40.049C829.558 56.063 831.137 76.0439 826.126 96.3369C822.161 112.424 814.304 128.751 801.436 147.721C788.935 166.16 773.534 184.708 752.975 206.103C736.931 222.797 722.76 235.799 705.744 244.926C692.086 252.254 678.025 256 664.735 256C658.274 256 652.014 255.118 646.067 253.337C628.077 247.956 611.611 233.448 600.873 213.522C591.034 195.249 586.518 174.607 583.122 155.031C577.799 124.398 574.77 89.4134 592.557 62.1234C608.362 37.8635 637.182 26.2019 657.466 19.5539ZM820.031 40.857C789.192 -21.7484 703.871 6.23946 658.035 21.2985C638.008 27.8731 609.592 39.3511 594.099 63.1334C576.642 89.8909 579.671 124.435 584.939 154.718C588.317 174.148 592.778 194.607 602.488 212.641C613.007 232.144 629.068 246.34 646.599 251.574C664.093 256.808 685.331 253.796 704.862 243.31C721.677 234.293 735.738 221.401 751.653 204.817C772.139 183.514 787.467 165.039 799.931 146.693C812.67 127.906 820.435 111.763 824.345 95.8961C829.264 76.0255 827.723 56.4854 820.031 40.857ZM665.708 47.1377C703.467 33.2907 757.123 19.1866 786.953 56.4854C793.653 64.8414 797.012 74.0788 797.012 84.0325C797.012 88.8624 796.223 93.876 794.644 99.0365C790.018 114.187 780.675 128.438 772.139 140.376C761.914 154.645 750.276 168.621 736.546 183.092C726.468 193.725 715.326 204.56 702.146 211.851C691.793 217.599 680.705 220.593 670.334 220.593C666.075 220.593 661.927 220.097 658.017 219.068C644.304 215.487 631.767 205.221 623.635 190.897C615.944 177.252 612.694 161.495 610.528 147.85C610.271 146.326 610.051 144.783 609.831 143.24C607.353 125.518 605.554 99.6242 618.605 79.5515C627.508 65.8698 642.469 55.5672 665.708 47.1377ZM732.232 34.4293C709.764 34.4293 685.9 41.6834 666.351 48.864C643.497 57.1465 628.812 67.2104 620.147 80.5432C607.426 100.12 609.207 125.555 611.648 142.983C611.868 144.526 612.089 146.05 612.327 147.575C614.475 161.036 617.687 176.609 625.232 189.979C633.125 203.899 645.241 213.853 658.476 217.287C671.472 220.685 687.075 218.132 701.246 210.253C714.206 203.073 725.238 192.348 735.224 181.825C748.9 167.427 760.483 153.506 770.652 139.292C779.096 127.484 788.348 113.398 792.9 98.5039C797.544 83.2979 795.066 69.5427 785.521 57.624C778.619 48.9926 770.377 43.1893 761.309 39.5531C752.259 35.9169 742.383 34.4293 732.232 34.4293ZM673.932 74.74C697.905 64.07 740.456 57.0547 754.719 72.1873C764.374 81.6818 768.321 88.8624 763.163 101.773C758.757 112.792 750.056 123.829 743.081 132.699L742.824 133.03C735.922 141.79 728.396 151.137 720.117 160.099C713.839 166.876 706.882 173.854 698.548 178.776C691.389 183.055 683.459 185.332 676.024 185.332C673.968 185.332 671.949 185.149 669.985 184.8C660.476 183.055 651.886 177.05 646.415 168.272C640.89 159.42 638.963 148.878 637.916 140.669C637.788 139.696 637.678 138.704 637.568 137.694C635.769 120.45 638.1 107.117 644.672 96.9613C652.161 85.3548 664.955 78.7251 673.932 74.74ZM725.917 65.3739C709.011 65.3739 688.801 70.1304 674.684 76.4111C660.752 82.6001 651.72 89.4501 646.213 97.953C639.88 107.76 637.641 120.689 639.403 137.511C639.495 138.484 639.623 139.476 639.734 140.449C640.762 148.456 642.634 158.759 647.976 167.298C653.171 175.636 661.321 181.347 670.316 183C678.888 184.561 688.837 182.449 697.612 177.197C705.744 172.385 712.591 165.535 718.777 158.85C727 149.944 734.508 140.633 741.374 131.891L741.631 131.56C748.551 122.782 757.142 111.855 761.456 101.093C765.788 90.2582 763.915 83.8121 753.415 73.4912L753.397 73.4728C747.982 67.7063 737.757 65.3739 725.917 65.3739ZM716.941 89.3399C726.505 88.5502 732.012 90.0378 733.756 93.8577C736.713 100.281 727.747 111.243 717.353 121.837L716.65 122.551C716.533 122.669 716.415 122.788 716.297 122.907L715.589 123.618C714.88 124.328 714.167 125.036 713.453 125.739C710.902 128.255 708.57 131.12 706.331 133.893C702.935 138.062 699.429 142.359 695.023 145.665C690.985 148.695 685.698 150.568 680.687 150.568C676.3 150.568 672.133 149.136 669.251 145.738C666.534 142.561 665.212 137.97 665.304 132.075C665.451 124.729 667.856 118.577 671.233 113.563C674.593 108.549 678.906 104.674 682.835 101.828C692.252 94.9963 705.009 90.3316 716.941 89.3399ZM732.085 94.629C730.745 91.6722 725.569 90.4785 717.088 91.1764C683.11 93.9862 667.434 116.814 667.14 132.111C667.048 137.529 668.223 141.716 670.646 144.544C676.153 150.99 687.02 149.374 693.922 144.195C698.144 141.037 701.577 136.813 704.899 132.736C707.175 129.926 709.543 127.024 712.168 124.435C714.575 122.069 718.495 118.21 722.254 113.95L722.845 113.274C723.042 113.048 723.238 112.821 723.433 112.593L724.015 111.906C729.417 105.481 733.894 98.5576 732.085 94.629Z" fill="#575445" fill-opacity="0.06"/>
</g>
<g clip-path="url(#clip1_18_2)">
<path fill-rule="evenodd" clip-rule="evenodd" d="M81.466 595.554C127.835 580.33 214.147 551.993 245.683 616.049C253.558 632.063 255.137 652.044 250.126 672.337C246.161 688.424 238.304 704.751 225.436 723.721C212.935 742.16 197.534 760.708 176.975 782.103C160.931 798.797 146.76 811.799 129.744 820.926C116.086 828.254 102.025 832 88.7352 832C82.2737 832 76.0141 831.118 70.0666 829.337C52.0772 823.956 35.6115 809.448 24.8729 789.522C15.0338 771.249 10.5181 750.607 7.12218 731.031C1.79879 700.398 -1.23003 665.413 16.5574 638.123C32.3624 613.864 61.1821 602.202 81.466 595.554ZM244.031 616.857C213.192 554.252 127.871 582.239 82.035 597.299C62.0081 603.873 33.5922 615.351 18.0994 639.133C0.64233 665.891 3.67115 700.435 8.93947 730.718C12.3171 750.148 16.7777 770.607 26.4883 788.641C37.0066 808.144 53.0685 822.34 70.599 827.574C88.0927 832.808 109.331 829.796 128.862 819.31C145.677 810.293 159.738 797.401 175.653 780.817C196.139 759.514 211.467 741.039 223.931 722.693C236.67 703.906 244.435 687.763 248.345 671.896C253.264 652.025 251.723 632.485 244.031 616.857ZM89.7081 623.138C127.467 609.291 181.123 595.187 210.953 632.485C217.653 640.841 221.012 650.079 221.012 660.033C221.012 664.862 220.223 669.876 218.644 675.037C214.018 690.187 204.675 704.438 196.139 716.376C185.914 730.645 174.276 744.621 160.546 759.092C150.468 769.725 139.326 780.56 126.146 787.851C115.793 793.599 104.705 796.593 94.3339 796.593C90.0752 796.593 85.9266 796.097 82.0167 795.068C68.3044 791.487 55.7669 781.221 47.635 766.897C39.9436 753.252 36.6945 737.495 34.5284 723.85C34.2714 722.326 34.0512 720.783 33.8309 719.24C31.3528 701.518 29.5538 675.624 42.6053 655.552C51.5082 641.87 66.4687 631.567 89.7081 623.138ZM156.232 610.429C133.764 610.429 109.9 617.683 90.3505 624.864C67.4967 633.147 52.8115 643.21 44.1472 656.543C31.4262 676.12 33.2068 701.555 35.6482 718.983C35.8685 720.526 36.0887 722.05 36.3274 723.575C38.4751 737.036 41.6875 752.609 49.232 765.979C57.1253 779.899 69.2406 789.853 82.4756 793.287C95.472 796.685 111.075 794.132 125.246 786.253C138.206 779.073 149.238 768.348 159.224 757.825C172.9 743.427 184.483 729.506 194.652 715.292C203.096 703.484 212.348 689.398 216.9 674.504C221.544 659.298 219.066 645.543 209.521 633.624C202.619 624.993 194.377 619.189 185.309 615.553C176.259 611.917 166.383 610.429 156.232 610.429ZM97.9318 650.74C121.905 640.07 164.456 633.055 178.719 648.187C188.374 657.682 192.321 664.862 187.163 677.773C182.757 688.792 174.056 699.829 167.081 708.699L166.824 709.03C159.922 717.79 152.396 727.137 144.117 736.099C137.839 742.876 130.882 749.854 122.548 754.776C115.389 759.055 107.459 761.332 100.024 761.332C97.9685 761.332 95.9493 761.149 93.9851 760.8C84.4765 759.055 75.8856 753.05 70.4154 744.272C64.8901 735.42 62.9626 724.878 61.9163 716.669C61.7878 715.696 61.6777 714.704 61.5676 713.694C59.7686 696.45 62.0999 683.117 68.6715 672.961C76.161 661.355 88.9555 654.725 97.9318 650.74ZM149.917 641.374C133.011 641.374 112.801 646.13 98.6844 652.411C84.7518 658.6 75.7204 665.45 70.2135 673.953C63.8805 683.76 61.641 696.689 63.4032 713.511C63.495 714.484 63.6235 715.476 63.7336 716.449C64.7616 724.456 66.6339 734.759 71.9757 743.298C77.1706 751.636 85.3209 757.347 94.3156 759C102.888 760.561 112.837 758.449 121.612 753.197C129.744 748.385 136.591 741.535 142.777 734.85C151 725.944 158.508 716.633 165.374 707.891L165.631 707.56C172.551 698.782 181.142 687.855 185.456 677.093C189.788 666.258 187.915 659.812 177.415 649.491L177.397 649.473C171.982 643.706 161.757 641.374 149.917 641.374ZM140.941 665.34C150.505 664.55 156.012 666.038 157.756 669.858C160.713 676.281 151.747 687.243 141.353 697.837L140.65 698.551C140.533 698.669 140.415 698.788 140.297 698.907L139.589 699.618C138.88 700.328 138.167 701.036 137.453 701.739C134.902 704.255 132.57 707.12 130.331 709.893C126.935 714.062 123.429 718.359 119.023 721.665C114.985 724.695 109.698 726.568 104.687 726.568C100.3 726.568 96.1328 725.136 93.2509 721.738C90.5341 718.561 89.2124 713.97 89.3042 708.075C89.4511 700.729 91.8558 694.577 95.2334 689.563C98.5926 684.549 102.906 680.674 106.835 677.828C116.252 670.996 129.009 666.332 140.941 665.34ZM156.085 670.629C154.745 667.672 149.569 666.479 141.088 667.176C107.11 669.986 91.4336 692.814 91.1399 708.111C91.0481 713.529 92.2229 717.716 94.646 720.544C100.153 726.99 111.02 725.374 117.922 720.195C122.144 717.037 125.577 712.813 128.899 708.736C131.175 705.926 133.543 703.024 136.168 700.435C138.575 698.069 142.495 694.21 146.254 689.95L146.845 689.274C147.042 689.048 147.238 688.821 147.433 688.593L148.015 687.906C153.417 681.481 157.894 674.558 156.085 670.629Z" fill="#575445" fill-opacity="0.07"/>
</g>
<defs>
<clipPath id="clip0_18_2">
<rect width="256" height="256" fill="white" transform="translate(576)"/>
</clipPath>
<clipPath id="clip1_18_2">
<rect width="256" height="256" fill="white" transform="translate(0 576)"/>
</clipPath>
</defs>
</svg>
