<svg width="1440" height="900" viewBox="0 0 1440 900" fill="none" xmlns="http://www.w3.org/2000/svg">
<path fill-rule="evenodd" clip-rule="evenodd" d="M1393.48 113.598C1410.55 117.036 1426.94 119.592 1440 114.678V120.384C1424.22 125.298 1405.57 121.554 1392.27 118.872C1263.46 92.952 1156.93 95.796 1066.58 127.602C1019.65 144.108 990.893 167.13 981.062 196.038C976.646 209.034 976.243 223.056 975.859 236.61C975.014 266.742 974.112 297.9 983.578 327.15C989.011 343.998 998.208 361.152 1011.69 379.584C1019.23 389.898 1028.68 401.292 1041.47 407.574C1052.64 413.082 1065.56 414.45 1078.92 415.476C1095.92 416.772 1113.14 417.6 1130.17 417.942C1139.62 418.122 1148.04 418.032 1155.61 414.99C1165.06 411.156 1172.03 402.948 1178.17 395.712L1253.24 307.26C1266.37 291.78 1281.27 274.23 1300.86 263.088C1318.21 253.188 1344.67 246.798 1366.85 258.498C1371.19 260.802 1375.1 263.664 1378.89 266.436C1382.4 269.028 1385.72 271.476 1389.37 273.492C1404.35 281.79 1422.05 281.592 1440 277.56V282.996C1412.52 288.972 1397.53 284.274 1386.45 278.136C1382.46 275.94 1378.83 273.276 1375.33 270.702C1371.55 267.93 1367.98 265.302 1364.03 263.214C1347.53 254.502 1323.92 256.266 1303.83 267.696C1285.15 278.334 1271.21 294.75 1257.73 310.626L1182.68 399.078C1176.42 406.44 1168.67 415.584 1157.89 419.94C1150.75 422.82 1143.01 423.396 1135.03 423.396C1133.38 423.396 1131.71 423.378 1130.04 423.342C1112.91 423 1095.55 422.154 1078.46 420.858C1064.49 419.778 1050.93 418.338 1038.8 412.362C1024.88 405.522 1014.89 393.498 1006.94 382.644C993.12 363.744 983.674 346.104 978.048 328.716C969.641 302.671 969.185 275.508 969.774 248.859L969.858 245.309C969.873 244.718 969.888 244.127 969.904 243.536L970 239.997C970.033 238.819 970.066 237.642 970.099 236.466C970.502 222.534 970.906 208.134 975.571 194.4C985.958 163.836 1015.91 139.662 1064.56 122.544C1155.97 90.36 1263.57 87.444 1393.48 113.598ZM1085.89 147.438C1134.39 132.516 1224.67 104.742 1257.66 167.526C1265.89 183.222 1267.55 202.806 1262.3 222.696C1258.16 238.464 1249.94 254.466 1236.48 273.06C1223.4 291.132 1207.3 309.312 1185.79 330.282C1169.01 346.644 1154.19 359.388 1136.39 368.334C1122.11 375.516 1107.4 379.188 1093.5 379.188C1086.74 379.188 1080.19 378.324 1073.97 376.578C1055.16 371.304 1037.93 357.084 1026.7 337.554C1016.41 319.644 1011.69 299.412 1008.13 280.224C1002.57 250.2 999.398 215.91 1018 189.162C1034.53 165.384 1064.68 153.954 1085.89 147.438ZM1255.93 168.318C1223.67 106.956 1134.43 134.388 1086.49 149.148C1065.54 155.592 1035.82 166.842 1019.62 190.152C1001.36 216.378 1004.52 250.236 1010.04 279.918C1013.57 298.962 1018.23 319.014 1028.39 336.69C1039.39 355.806 1056.19 369.72 1074.53 374.85C1092.83 379.98 1115.04 377.028 1135.47 366.75C1153.06 357.912 1167.76 345.276 1184.41 329.022C1205.84 308.142 1221.87 290.034 1234.91 272.052C1248.23 253.638 1256.35 237.816 1260.44 222.264C1265.59 202.788 1263.97 183.636 1255.93 168.318ZM1094.52 174.474C1134.01 160.902 1190.13 147.078 1221.33 183.636C1228.34 191.826 1231.85 200.88 1231.85 210.636C1231.85 215.37 1231.03 220.284 1229.38 225.342C1224.54 240.192 1214.76 254.16 1205.84 265.86C1195.14 279.846 1182.97 293.544 1168.61 307.728C1158.07 318.15 1146.41 328.77 1132.63 335.916C1121.8 341.55 1110.2 344.484 1099.35 344.484C1094.9 344.484 1090.56 343.998 1086.47 342.99C1072.13 339.48 1059.01 329.418 1050.51 315.378C1042.46 302.004 1039.07 286.56 1036.8 273.186C1036.53 271.692 1036.3 270.18 1036.07 268.668C1033.48 251.298 1031.6 225.918 1045.25 206.244C1054.56 192.834 1070.21 182.736 1094.52 174.474ZM1164.1 162.018C1140.6 162.018 1115.64 169.128 1095.19 176.166C1071.28 184.284 1055.92 194.148 1046.86 207.216C1033.56 226.404 1035.42 251.334 1037.97 268.416C1038.2 269.928 1038.43 271.422 1038.68 272.916C1040.93 286.11 1044.29 301.374 1052.18 314.478C1060.44 328.122 1073.11 337.878 1086.95 341.244C1100.54 344.574 1116.86 342.072 1131.69 334.35C1145.24 327.312 1156.78 316.8 1167.23 306.486C1181.53 292.374 1193.64 278.73 1204.28 264.798C1213.11 253.224 1222.79 239.418 1227.55 224.82C1232.41 209.916 1229.82 196.434 1219.83 184.752C1212.61 176.292 1203.99 170.604 1194.51 167.04C1185.04 163.476 1174.71 162.018 1164.1 162.018ZM1103.12 201.528C1128.19 191.07 1172.7 184.194 1187.62 199.026C1197.72 208.332 1201.84 215.37 1196.45 228.024C1191.84 238.824 1182.74 249.642 1175.44 258.336L1175.17 258.66C1167.96 267.246 1160.08 276.408 1151.42 285.192C1144.86 291.834 1137.58 298.674 1128.86 303.498C1121.38 307.692 1113.08 309.924 1105.31 309.924C1103.16 309.924 1101.04 309.744 1098.99 309.402C1089.04 307.692 1080.06 301.806 1074.34 293.202C1068.56 284.526 1066.54 274.194 1065.45 266.148C1065.31 265.194 1065.2 264.222 1065.08 263.232C1063.2 246.33 1065.64 233.262 1072.51 223.308C1080.35 211.932 1093.73 205.434 1103.12 201.528ZM1157.49 192.348C1139.81 192.348 1118.67 197.01 1103.9 203.166C1089.33 209.232 1079.88 215.946 1074.12 224.28C1067.5 233.892 1065.16 246.564 1067 263.052C1067.1 264.006 1067.23 264.978 1067.35 265.932C1068.42 273.78 1070.38 283.878 1075.97 292.248C1081.4 300.42 1089.93 306.018 1099.33 307.638C1108.3 309.168 1118.71 307.098 1127.88 301.95C1136.39 297.234 1143.55 290.52 1150.02 283.968C1158.62 275.238 1166.48 266.112 1173.66 257.544L1173.93 257.22C1181.16 248.616 1190.15 237.906 1194.66 227.358C1199.19 216.738 1197.24 210.42 1186.25 200.304L1186.23 200.286C1180.57 194.634 1169.88 192.348 1157.49 192.348ZM1148.1 215.838C1158.11 215.064 1163.87 216.522 1165.69 220.266C1168.91 226.812 1158.64 238.167 1147.23 248.926L1146.12 249.965C1145.94 250.138 1145.75 250.31 1145.57 250.483L1144.45 251.514C1141.79 253.98 1139.35 256.788 1137 259.506C1133.45 263.592 1129.79 267.804 1125.18 271.044C1120.95 274.014 1115.42 275.85 1110.18 275.85C1105.59 275.85 1101.24 274.446 1098.22 271.116C1095.38 268.002 1094 263.502 1094.09 257.724C1094.25 250.524 1096.76 244.494 1100.29 239.58C1103.81 234.666 1108.32 230.868 1112.43 228.078C1122.28 221.382 1135.62 216.81 1148.1 215.838ZM1163.94 221.022C1162.54 218.124 1157.13 216.954 1148.26 217.638C1112.72 220.392 1096.32 242.766 1096.01 257.76C1095.92 263.07 1097.15 267.174 1099.68 269.946C1105.44 276.264 1116.81 274.68 1124.03 269.604C1128.44 266.508 1132.03 262.368 1135.51 258.372C1137.89 255.618 1140.36 252.774 1143.11 250.236C1143.71 249.681 1144.41 249.043 1145.16 248.335L1145.95 247.605C1153.69 240.336 1166.91 227.065 1163.94 221.022ZM1320.69 134.118C1334.67 134.388 1348.72 136.224 1362.32 138.024C1370.48 139.086 1378.92 140.202 1387.24 140.94C1408.34 142.848 1425.48 141.894 1440 137.898V139.77C1425.35 143.712 1408.17 144.648 1387.07 142.74C1378.69 141.984 1370.23 140.868 1362.05 139.806C1348.51 138.024 1334.52 136.188 1320.65 135.918C1314.36 135.81 1307.29 136.26 1303.07 140.562C1297.77 145.908 1299.74 154.368 1300.84 157.752C1301.57 160.038 1302.53 162.306 1303.47 164.52C1305.02 168.174 1306.62 171.954 1307.27 175.95C1308.02 180.54 1307.48 185.202 1306.96 189.702C1306.71 191.844 1306.46 194.076 1306.35 196.254C1306.12 200.898 1306.64 209.376 1312.74 213.876C1318.2 217.872 1325.3 217.188 1332.84 216.45C1336.95 216.054 1341.22 215.622 1345.27 216.018C1355.12 216.972 1363.24 222.66 1371.09 228.15C1373.66 229.932 1376.31 231.804 1378.96 233.442C1396.74 244.44 1419.36 247.788 1440 243.27V245.124C1434.05 246.384 1427.96 247.014 1421.86 247.014C1406.36 247.014 1390.89 242.964 1377.91 234.936C1375.22 233.262 1372.53 231.408 1369.96 229.59L1368.47 228.554C1361.27 223.55 1353.79 218.66 1345.08 217.818C1341.22 217.44 1337.07 217.854 1333.04 218.232C1325.45 218.988 1317.62 219.744 1311.55 215.28C1304.77 210.294 1304.18 201.168 1304.43 196.164C1304.54 193.932 1304.81 191.682 1305.06 189.504C1305.56 185.112 1306.1 180.576 1305.37 176.22C1304.76 172.422 1303.2 168.75 1301.68 165.186C1300.74 162.936 1299.76 160.632 1299 158.274C1297.8 154.584 1295.69 145.386 1301.64 139.338C1306.41 134.532 1313.93 134.01 1320.69 134.118ZM1440 161.334V163.206C1417.86 169.002 1394.04 167.184 1372.7 165.546C1363.99 164.88 1351.85 164.88 1347.23 172.584C1343.75 178.398 1346.76 185.994 1351.37 190.188C1356.42 194.796 1363.55 197.064 1370.5 198.846C1394.76 205.038 1418.4 206.532 1440 203.364V205.182C1432.67 206.262 1425.14 206.784 1417.42 206.784C1402.16 206.784 1386.2 204.714 1370 200.574C1362.8 198.738 1355.4 196.38 1350.03 191.484C1344.79 186.696 1341.56 178.362 1345.56 171.702C1350.72 163.098 1363.6 163.044 1372.86 163.764C1394.21 165.402 1418.05 167.22 1440 161.334ZM1083.71 0C1082.8 19.098 1079.25 37.944 1073.11 56.304C1070.63 63.666 1068.44 71.946 1073.55 77.022C1077.62 81.054 1084.51 80.982 1090.04 80.478C1102.14 79.362 1114.21 76.662 1125.87 74.07C1130.8 72.972 1135.91 71.82 1140.96 70.812C1204.4 58.1768 1268.92 63.5919 1334.78 72.4121L1339.6 73.0633C1342.82 73.5013 1346.04 73.9464 1349.26 74.3972L1354.1 75.0772C1354.9 75.1912 1355.71 75.3055 1356.52 75.42C1382.11 79.056 1412.14 83.322 1440 78.84V80.676C1431.48 82.044 1422.74 82.584 1414 82.584C1394.05 82.584 1374.09 79.74 1356.23 77.202C1351.4 76.516 1346.58 75.8397 1341.76 75.1787L1336.95 74.523C1270.42 65.5292 1205.28 59.836 1141.36 72.576C1136.33 73.584 1131.24 74.718 1126.31 75.816C1114.58 78.426 1102.46 81.126 1090.23 82.26C1084.72 82.764 1076.85 82.908 1072.15 78.246C1066.33 72.468 1068.65 63.612 1071.28 55.764C1077.35 37.602 1080.86 18.9 1081.77 0H1083.71ZM1120.86 0C1121.28 10.44 1118.96 20.97 1114.08 30.348L1113.79 30.906C1112.87 32.652 1111.93 34.452 1111.87 36.288C1111.72 40.338 1115.9 43.56 1120.05 44.334C1124.41 45.162 1129.02 44.064 1133.45 43.002L1133.66 42.948C1179.67 31.95 1227.01 27.648 1274.42 30.186C1288.59 30.942 1302.95 32.328 1316.83 33.678C1335.28 35.46 1354.37 37.314 1373.2 37.674C1398.68 38.196 1420.78 35.802 1440 30.42V32.292C1420.72 37.62 1398.6 39.996 1373.16 39.474C1354.25 39.096 1335.13 37.26 1316.64 35.46C1302.78 34.128 1288.44 32.724 1274.3 31.968C1227.11 29.466 1179.96 33.732 1134.14 44.694L1133.93 44.748C1130.46 45.576 1126.89 46.422 1123.3 46.422C1122.09 46.422 1120.88 46.332 1119.67 46.098C1114.75 45.18 1109.76 41.238 1109.95 36.216C1110.03 34.002 1111.07 32.022 1112.06 30.114L1112.37 29.556C1117.11 20.412 1119.38 10.152 1118.96 0H1120.86Z" fill="#575445" fill-opacity="0.09"/>
<path fill-rule="evenodd" clip-rule="evenodd" d="M338.918 501.174C364.742 507.348 393.562 523.17 396.998 549.072C398.726 562.158 393.562 574.776 389.011 585.918L361.459 653.31C352.032 676.368 341.357 702.486 345.869 728.442C350.784 756.648 374.976 780.768 404.678 787.104C413.53 788.994 423.072 789.48 432.307 789.966C448.896 790.812 466.042 791.694 480.192 800.604C502.406 814.59 506.726 841.734 507.322 856.674C508.032 874.98 504.307 888.804 495.898 898.956C495.61 899.298 495.322 899.658 494.995 900H487.392C488.813 898.524 490.138 897.084 491.347 895.644C498.893 886.536 502.234 873.846 501.562 856.872C501.005 842.958 497.088 817.74 476.986 805.086C464.73 797.363 449.915 796.297 434.182 795.463L431.981 795.348C422.515 794.862 412.723 794.358 403.411 792.378C371.462 785.556 345.466 759.636 340.186 729.306C335.424 701.928 346.867 673.902 356.083 651.366L383.635 583.992C387.936 573.444 392.832 561.492 391.277 549.738C388.205 526.536 361.478 512.136 337.498 506.412C278.112 492.21 215.482 506.358 156.422 522.072C126.835 529.938 100.397 537.552 76.5504 551.25C70.6368 554.634 64.8 558.468 59.1552 562.176C47.9424 569.556 36.3456 577.17 23.2512 581.958C16.224 584.532 8.1408 586.134 0 586.296V580.914C7.3728 580.752 14.7648 579.276 21.1584 576.936C33.6 572.382 44.9088 564.948 55.8528 557.766C61.5744 554.004 67.4688 550.116 73.536 546.642C97.9968 532.62 125.952 524.556 154.848 516.87C214.656 500.958 278.15 486.648 338.918 501.174ZM361.306 475.866C387.994 482.76 406.368 492.03 419.117 505.062C429.427 515.592 451.814 546.282 436.838 603.378C432.499 619.866 426.01 635.994 419.712 651.618C413.242 667.638 406.56 684.216 402.278 701.118C400.109 709.632 398.458 719.442 402.47 727.704C405.12 733.122 410.15 737.856 417.869 742.194C431.827 750.042 448.224 753.624 464.064 757.08L466.923 757.706C483.15 761.271 499.734 765.209 513.715 773.964C535.027 787.302 549.485 811.836 553.363 841.266C555.955 860.904 554.035 880.632 551.002 900H549.062C552.096 880.668 554.035 860.994 551.462 841.482C547.642 812.574 533.491 788.508 512.64 775.458C499.352 767.142 483.499 763.227 467.89 759.777L465.056 759.153C464.584 759.05 464.112 758.947 463.642 758.844C447.648 755.352 431.098 751.734 416.89 743.742C408.826 739.206 403.526 734.202 400.723 728.46C396.461 719.694 398.17 709.506 400.416 700.704C404.736 683.694 411.437 667.062 417.907 650.97C424.186 635.418 430.675 619.326 434.957 602.946C449.722 546.696 427.795 516.6 417.696 506.268C405.216 493.506 387.13 484.398 360.787 477.612C284.544 457.92 197.203 466.164 85.9392 503.532L79.2 505.818C53.6448 514.458 27.2256 523.386 0 523.35V521.55C23.5704 521.597 46.5822 514.795 68.9839 507.342L72.18 506.274C74.308 505.559 76.4304 504.842 78.5472 504.126L85.3056 501.84C196.954 464.346 284.659 456.084 361.306 475.866ZM298.176 537.57C324.691 541.566 340.109 558.126 343.642 572.778C347.03 586.82 341.721 600.799 336.055 614.372L335.314 616.14C335.191 616.434 335.067 616.728 334.944 617.022L334.003 619.272C314.554 665.82 308.736 705.33 316.224 740.034C327.187 790.812 365.798 819.954 399.206 826.326C402.355 826.938 405.638 827.388 408.826 827.82C416.41 828.882 424.243 829.98 431.309 833.148C447.533 840.474 457.709 858.996 456.038 878.202C455.405 885.42 453.254 892.728 449.683 900H447.571C450.95 893.322 453.427 885.942 454.118 878.058C455.731 859.572 446.016 841.77 430.464 834.768C423.686 831.708 415.987 830.646 408.538 829.602C405.331 829.17 402.029 828.702 398.822 828.09C378.067 824.13 358.944 813.186 343.488 796.428C329.146 780.858 318.797 760.968 314.342 740.394C306.778 705.33 312.614 665.496 332.218 618.606L333.158 616.356C339.11 602.208 345.235 587.592 341.779 573.174C338.381 559.116 323.501 543.204 297.869 539.334C283.699 537.21 269.184 539.64 255.149 542.016C250.387 542.808 245.491 543.636 240.672 544.266C220.224 546.966 199.776 551.178 179.885 556.83C139.757 568.224 102.125 585.198 68.0064 607.284C66.2784 608.382 64.5696 609.516 62.8416 610.65C50.9952 618.444 38.7264 626.49 24.576 630C16.5504 631.998 8.3712 632.43 0 632.592V630.792C8.2176 630.63 16.2624 630.198 24.096 628.272C37.92 624.834 50.0352 616.878 61.7472 609.174C63.4752 608.04 65.184 606.906 66.912 605.79C101.203 583.614 139.008 566.568 179.328 555.12C199.315 549.432 219.859 545.184 240.403 542.484C245.184 541.854 250.08 541.044 254.803 540.234C268.992 537.84 283.68 535.374 298.176 537.57ZM275.405 745.794C279.475 752.778 279.706 760.842 279.936 768.654C280.07 773.748 280.224 779.004 281.434 783.9C284.813 797.562 296.006 809.334 316.704 820.98C329.894 828.414 343.891 834.714 358.33 839.754L362.131 841.05C378.106 846.54 396.23 852.768 403.488 867.528C407.77 876.276 407.405 887.4 402.509 897.282C402.048 898.2 401.568 899.1 401.03 900H398.822C399.552 898.848 400.186 897.696 400.762 896.526C405.427 887.112 405.792 876.546 401.741 868.284C395.532 855.623 381.22 849.644 366.473 844.475L364.802 843.893C363.688 843.507 362.572 843.124 361.459 842.742L357.658 841.428C343.123 836.37 329.011 830.016 315.706 822.528C294.547 810.612 283.066 798.462 279.571 784.314C278.304 779.238 278.15 773.874 278.016 768.708C277.786 760.752 277.574 753.246 273.715 746.64C265.92 733.23 246.144 730.35 231.494 734.454C218.842 737.982 207.84 745.542 197.203 752.85C194.746 754.524 192.288 756.216 189.811 757.836C161.856 776.34 128.371 790.83 84.4224 803.412C58.752 810.774 29.4144 817.524 0 815.4V813.582C29.1456 815.724 58.3104 808.992 83.8464 801.684C127.603 789.156 160.915 774.756 188.717 756.378C191.174 754.74 193.613 753.066 196.07 751.392C206.842 743.994 217.978 736.344 230.938 732.726C246.317 728.424 267.11 731.538 275.405 745.794ZM245.414 797.04C248.563 801.522 249.946 806.778 251.29 811.872C251.693 813.42 252.096 814.95 252.538 816.462C258.566 836.73 274.138 852.822 293.184 858.492C297.85 859.878 302.784 860.688 307.546 861.462C311.213 862.056 315.014 862.668 318.701 863.55C329.165 866.052 336.787 870.66 340.723 876.888C345.427 884.34 344.525 892.692 341.779 900H339.763C342.528 892.962 343.565 884.898 339.072 877.806C334.426 870.462 325.171 866.952 318.221 865.296C314.611 864.432 310.848 863.82 307.219 863.226C302.381 862.452 297.389 861.642 292.608 860.22C272.947 854.37 256.877 837.792 250.694 816.948C250.234 815.418 249.83 813.87 249.427 812.304C248.122 807.372 246.778 802.242 243.821 798.03C236.736 787.986 222.067 785.412 210.682 787.338C199.507 789.228 189.254 794.628 179.366 799.866L176.122 801.558C134.304 823.446 71.5008 847.62 0 846.162V844.38C71.0976 845.838 133.574 821.772 175.2 799.992L178.406 798.282C188.448 792.99 198.835 787.5 210.336 785.574C222.355 783.54 237.85 786.312 245.414 797.04ZM208.378 840.924C213.006 844.471 215.586 849.532 217.936 854.579L218.573 855.954C220.243 859.572 221.971 863.298 224.371 866.466C229.978 873.828 239.117 878.04 247.93 882.108C249.274 882.72 250.598 883.332 251.904 883.962C256.032 885.906 260.678 888.336 263.309 892.386C264.864 894.762 265.574 897.462 265.978 900H264.038C263.654 897.732 263.002 895.356 261.677 893.322C259.296 889.686 254.938 887.4 251.04 885.564C249.734 884.952 248.41 884.34 247.085 883.728L245.332 882.917C236.85 878.983 228.312 874.751 222.816 867.51C220.282 864.18 218.515 860.364 216.806 856.656C214.253 851.13 211.853 845.91 207.168 842.328C201.677 838.134 193.152 836.802 184.378 838.782C177.619 840.294 171.283 843.408 165.158 846.414C164.064 846.954 162.989 847.476 161.914 847.998C111.072 872.478 53.3184 879.372 0 883.656V881.856C53.1072 877.572 110.554 870.696 161.03 846.396C162.106 845.874 163.181 845.352 164.256 844.812C170.496 841.77 176.947 838.602 183.936 837.036C193.421 834.894 202.33 836.316 208.378 840.924ZM182.458 893.178C185.453 894.996 188.237 897.174 190.944 899.262L191.885 900H188.87C186.49 898.128 184.013 896.274 181.421 894.69C168.307 886.77 150.47 885.366 128.371 890.532C121.824 892.062 115.258 894.024 108.902 895.914C104.198 897.3 99.3984 898.74 94.56 900H86.9952C94.2336 898.398 101.357 896.274 108.326 894.204C114.701 892.296 121.306 890.334 127.91 888.786C150.528 883.494 168.883 884.97 182.458 893.178ZM133.69 617.058C172.109 601.92 252.058 570.438 281.549 585.63C287.674 588.78 291.398 593.802 292.608 600.552C297.595 628.184 267.123 661.354 250.189 677.335L249.03 678.422C246.759 680.539 244.773 682.311 243.206 683.676C216.902 706.59 185.376 723.798 152.659 740.844C113.107 761.472 68.2752 784.836 19.4496 786.384C18.0288 786.438 16.608 786.456 15.2256 786.456C9.7344 786.456 4.6656 786.096 0 785.358V783.54C5.7984 784.476 12.2496 784.818 19.392 784.584C67.7568 783.054 112.378 759.798 151.738 739.278C184.339 722.286 215.75 705.15 241.901 682.362C254.784 671.13 296.352 632.106 290.707 600.858C289.594 594.684 286.195 590.094 280.627 587.214C251.962 572.436 172.57 603.702 134.438 618.714C126.336 621.9 119.962 624.42 116.198 625.662C77.6064 638.352 34.2336 652.608 0 678.132V675.828C34.2912 650.682 77.2608 636.534 115.565 623.952C119.27 622.746 125.626 620.226 133.69 617.058ZM89.3184 664.308C99.8208 660.744 116.064 660.114 126.95 667.17C133.613 671.49 137.203 678.096 137.299 686.268C137.434 696.258 131.194 706.158 118.234 716.508C100.339 730.818 79.008 741.852 54.7968 749.34C41.7216 753.39 30.4512 755.37 20.3136 755.37C15.6864 755.37 11.2704 754.956 7.0464 754.128C4.9152 753.732 2.208 753.048 0 751.626V749.304C2.016 751.14 5.1072 751.914 7.4304 752.382C20.6208 754.92 35.4816 753.408 54.2016 747.63C78.1632 740.214 99.2832 729.288 116.986 715.14C129.485 705.15 135.494 695.718 135.379 686.286C135.283 678.618 132.077 672.678 125.856 668.646C117.005 662.904 102.259 661.824 89.9904 666L84.96 667.71C63.1296 675.108 40.5504 682.74 22.6944 697.05C11.5392 705.996 3.6864 716.85 0 728.1V722.772C4.2624 712.926 11.5968 703.566 21.4464 695.682C30.5088 688.428 40.7232 682.866 51.4176 678.204C62.1312 673.524 73.3056 669.744 84.3072 666.018L89.3184 664.308ZM224.947 618.12C235.853 617.544 243.974 620.532 247.238 626.274C250.406 631.818 248.698 639.198 242.419 647.046C230.419 662.076 210.413 671.364 190.598 671.364C189.312 671.364 188.006 671.328 186.72 671.238C184.474 671.094 182.112 670.842 179.962 669.852C174.182 667.188 172.493 660.492 172.781 655.578C173.357 646.002 179.923 636.336 190.31 629.73C195.59 626.382 201.466 623.628 207.418 621.63C213.35 619.632 219.379 618.408 224.947 618.12ZM227.52 619.848C226.714 619.848 225.888 619.884 225.043 619.92C214.253 620.478 201.677 624.69 191.405 631.224C186.451 634.356 182.419 638.226 179.539 642.42C176.678 646.632 174.989 651.168 174.701 655.686C174.432 660.042 175.872 665.964 180.806 668.232C182.65 669.078 184.8 669.312 186.854 669.438C207.264 670.716 228.48 661.5 240.883 645.966C246.682 638.712 248.352 632.016 245.549 627.12C242.88 622.44 236.39 619.848 227.52 619.848Z" fill="#575445" fill-opacity="0.09"/>
</svg>
