<svg width="20" height="20" viewBox="0 0 20 20" fill="none" xmlns="http://www.w3.org/2000/svg">
<g clip-path="url(#clip0_48_2)">
<path fill-rule="evenodd" clip-rule="evenodd" d="M10 11.1783L14.7142 15.8925C14.8713 16.0443 15.0818 16.1283 15.3003 16.1264C15.5188 16.1245 15.7278 16.0368 15.8824 15.8823C16.0369 15.7278 16.1245 15.5188 16.1264 15.3003C16.1283 15.0818 16.0443 14.8713 15.8925 14.7141L11.1783 9.99996L15.8925 5.2858C16.0443 5.12863 16.1283 4.91812 16.1264 4.69963C16.1245 4.48113 16.0369 4.27212 15.8824 4.11761C15.7278 3.96311 15.5188 3.87547 15.3003 3.87357C15.0818 3.87167 14.8713 3.95566 14.7142 4.10746L10 8.82163L5.28583 4.10746C5.12796 3.95942 4.91868 3.8786 4.70228 3.88211C4.48587 3.88563 4.27933 3.9732 4.12634 4.12629C3.97336 4.27938 3.88593 4.48599 3.88257 4.7024C3.87921 4.9188 3.96018 5.12802 4.10833 5.2858L8.82167 9.99996L4.1075 14.7141C4.02791 14.791 3.96442 14.883 3.92075 14.9846C3.87708 15.0863 3.85409 15.1956 3.85313 15.3063C3.85216 15.4169 3.87325 15.5267 3.91515 15.6291C3.95705 15.7315 4.01893 15.8245 4.09717 15.9028C4.17542 15.981 4.26846 16.0429 4.37087 16.0848C4.47329 16.1267 4.58302 16.1478 4.69367 16.1468C4.80432 16.1459 4.91367 16.1229 5.01534 16.0792C5.11701 16.0355 5.20896 15.9721 5.28583 15.8925L10 11.1783Z" fill="black"/>
</g>
<defs>
<clipPath id="clip0_48_2">
<rect width="20" height="20" fill="white"/>
</clipPath>
</defs>
</svg>
