<svg width="540" height="4" viewBox="0 0 540 4" fill="none" xmlns="http://www.w3.org/2000/svg">
<g clip-path="url(#clip0_1_171)">
<path d="M0 2C0 0.895431 0.895431 0 2 0H538C539.105 0 540 0.895431 540 2C540 3.10457 539.105 4 538 4H2.00001C0.895436 4 0 3.10457 0 2Z" fill="#EBEBEB"/>
<path d="M0 2C0 0.895431 0.895431 0 2 0H349C350.105 0 351 0.895431 351 2C351 3.10457 350.105 4 349 4H2.00001C0.895437 4 0 3.10457 0 2Z" fill="#B861FF"/>
</g>
<defs>
<clipPath id="clip0_1_171">
<rect width="540" height="4" fill="white"/>
</clipPath>
</defs>
</svg>
